<svg width="24" height="16" viewBox="0 0 24 16" fill="none" xmlns="http://www.w3.org/2000/svg">
<path d="M18.5591 3.92271C15.5006 3.92271 14.0485 5.54359 13.369 6.90329C12.9149 7.81196 12.7429 8.7136 12.6777 9.27445C12.5398 8.7308 12.2927 8.13971 11.8513 7.67326C11.6301 7.4394 11.3777 7.25401 11.0957 7.11751C11.7244 6.69559 12.3435 5.9155 12.3435 4.47944C12.3435 3.14885 11.8879 2.05077 11.0262 1.30396C10.2373 0.620241 9.14958 0.258789 7.88054 0.258789H0.387045C0.173249 0.258742 0 0.432085 0 0.645834V15.048C0 15.2617 0.173249 15.435 0.387045 15.435H7.87661C7.88584 15.4353 7.90426 15.4356 7.93103 15.4356C8.26196 15.4356 9.42896 15.3908 10.5558 14.8142C11.4863 14.3382 12.5752 13.3877 12.8015 11.5214C12.9828 12.3198 13.3527 13.2685 14.1008 14.0702C15.1307 15.1737 16.6274 15.7342 18.5492 15.7361C18.577 15.7375 18.6486 15.7403 18.7562 15.7403C19.2414 15.7403 20.493 15.682 21.6314 15.1419C23.0981 14.446 23.8735 13.1929 23.8735 11.518C23.8735 11.3042 23.7002 11.1309 23.4864 11.1309H20.9524C20.8462 11.1309 20.7444 11.1719 20.6714 11.2491C20.5983 11.3262 20.56 11.4273 20.5656 11.5334C20.566 11.5477 20.5711 11.8884 20.2793 12.1876C19.9646 12.5103 19.3989 12.6808 18.6434 12.6808C18.6358 12.6808 18.6266 12.6812 18.619 12.6816C18.614 12.682 18.5913 12.683 18.5546 12.683C18.3966 12.683 17.8435 12.6607 17.3608 12.3737C16.8766 12.0857 16.5935 11.6071 16.5167 10.9479H23.5721C23.7665 10.9479 23.9308 10.8038 23.9559 10.6109C23.9724 10.4844 24.3405 7.49134 22.622 5.5338C21.6833 4.46477 20.3163 3.92271 18.5591 3.92271ZM16.5828 8.25268C16.7882 7.69384 17.3187 6.80668 18.6157 6.80668C19.1626 6.80668 19.5931 6.96067 19.8952 7.26437C20.1941 7.56488 20.3242 7.96304 20.3807 8.25272L16.5828 8.25268ZM4.07689 9.02681H7.88284C7.99867 9.02766 9.01346 9.07969 9.01346 10.6174C9.01346 11.623 8.59796 12.081 7.66633 12.1019H4.07689V9.02681ZM7.62081 6.0317H4.07689V3.59163L7.873 3.59149C7.97973 3.59604 8.51242 3.67113 8.51242 4.70346C8.51246 6.0317 8.03875 6.0317 7.62081 6.0317Z" fill="black"/>
<path d="M15.4598 3.42125H21.4023C21.6161 3.42125 21.7893 3.2479 21.7893 3.0342V1.26107C21.7893 1.04732 21.6161 0.874023 21.4023 0.874023H15.4598C15.246 0.874023 15.0728 1.04737 15.0728 1.26107V3.03406C15.0728 3.2479 15.246 3.42125 15.4598 3.42125Z" fill="black"/>
</svg>
