<svg width="16" height="15" viewBox="0 0 16 15" fill="none"
  xmlns="http://www.w3.org/2000/svg">
  <path d="M8.89681 0.0145818C8.92357 1.15403 9.17239 2.27504 9.62746 3.30717C10.0825 4.3393 10.7338 5.26001 11.5406 6.01122C13.2477 7.62773 15.4586 8.51446 17.7457 8.5005C15.4943 8.39928 13.2965 9.24871 11.6322 10.8628C9.9678 12.4769 8.97205 14.7248 8.86236 17.1158C8.85721 15.9621 8.62345 14.8226 8.17692 13.7711C7.73037 12.7196 7.08099 11.7797 6.27031 11.0122C4.55881 9.36079 2.32607 8.45171 0.0137818 8.46459C2.30366 8.48579 4.5201 7.6053 6.23537 5.99319C7.04335 5.2456 7.69692 4.32843 8.15498 3.29946C8.61303 2.27048 8.86558 1.15223 8.89681 0.0145818Z" fill="#6833FF" />
</svg>
