<svg width="24" height="25" viewBox="0 0 24 25" fill="none"
  xmlns="http://www.w3.org/2000/svg">
  <path d="M17.75 13.6113L10.25 21.1113C10.0387 21.3227 9.75201 21.4414 9.45312 21.4414C9.15424 21.4414 8.86759 21.3227 8.65625 21.1113C8.4449 20.9 8.32617 20.6133 8.32617 20.3145C8.32617 20.0156 8.4449 19.7289 8.65625 19.5176L15.3603 12.8154L8.65812 6.11133C8.55348 6.00668 8.47047 5.88245 8.41383 5.74572C8.3572 5.60899 8.32805 5.46244 8.32805 5.31445C8.32805 5.16646 8.3572 5.01991 8.41383 4.88319C8.47047 4.74646 8.55348 4.62222 8.65812 4.51758C8.76277 4.41293 8.887 4.32992 9.02373 4.27328C9.16046 4.21665 9.30701 4.1875 9.455 4.1875C9.60299 4.1875 9.74954 4.21665 9.88626 4.27328C10.023 4.32992 10.1472 4.41293 10.2519 4.51758L17.7519 12.0176C17.8566 12.1222 17.9397 12.2465 17.9963 12.3833C18.0529 12.5201 18.082 12.6668 18.0818 12.8148C18.0816 12.9629 18.0522 13.1095 17.9953 13.2462C17.9384 13.3828 17.855 13.5069 17.75 13.6113Z" fill="#1A1A1A"/>
</svg>
