<svg width="25" height="24" viewBox="0 0 25 24" fill="none" xmlns="http://www.w3.org/2000/svg">
<g clip-path="url(#clip0_1812_4914)">
<path d="M17.1658 19.4287C17.6831 19.2249 18.1845 18.9827 18.6658 18.7041V22.5C18.6658 22.6989 18.5868 22.8897 18.4461 23.0303C18.3055 23.171 18.1147 23.25 17.9158 23.25C17.7169 23.25 17.5261 23.171 17.3855 23.0303C17.2448 22.8897 17.1658 22.6989 17.1658 22.5V19.4287ZM18.2683 11.1384L13.0183 8.33812C12.8431 8.24866 12.6398 8.23158 12.4522 8.29056C12.2646 8.34955 12.1076 8.47989 12.0152 8.65349C11.9227 8.82709 11.9021 9.03006 11.9579 9.21868C12.0137 9.40729 12.1413 9.56645 12.3133 9.66187L16.697 12L18.2908 11.1506L18.2683 11.1384ZM24.2683 8.33812L13.0183 2.33812C12.9098 2.28034 12.7887 2.25012 12.6658 2.25012C12.5428 2.25012 12.4218 2.28034 12.3133 2.33812L1.06328 8.33812C0.943285 8.40207 0.842932 8.49744 0.772956 8.61403C0.702981 8.73061 0.666016 8.86402 0.666016 9C0.666016 9.13597 0.702981 9.26938 0.772956 9.38597C0.842932 9.50255 0.943285 9.59792 1.06328 9.66187L3.66578 11.0503V15.5897C3.665 15.9581 3.80058 16.3137 4.04641 16.5881C5.27453 17.9559 8.02609 20.25 12.6658 20.25C14.2042 20.2627 15.7311 19.9841 17.1658 19.4287V12.2503L16.697 12L12.6658 14.1497L4.77484 9.9375L3.00953 9L12.6658 3.85031L22.322 9L20.5614 9.9375H20.5558L18.2908 11.1506C18.4048 11.2165 18.4995 11.3112 18.5653 11.4252C18.6312 11.5393 18.6658 11.6686 18.6658 11.8003V18.7041C19.6438 18.1395 20.5276 17.4256 21.2852 16.5881C21.531 16.3137 21.6666 15.9581 21.6658 15.5897V11.0503L24.2683 9.66187C24.3883 9.59792 24.4886 9.50255 24.5586 9.38597C24.6286 9.26938 24.6655 9.13597 24.6655 9C24.6655 8.86402 24.6286 8.73061 24.5586 8.61403C24.4886 8.49744 24.3883 8.40207 24.2683 8.33812Z" fill="#999999"/>
</g>
<defs>
<clipPath id="clip0_1812_4914">
<rect width="24" height="24" fill="white" transform="translate(0.666016)"/>
</clipPath>
</defs>
</svg>
