<svg width="44" height="44" viewBox="0 0 44 44" fill="none"
  xmlns="http://www.w3.org/2000/svg">
  <g clip-path="url(#clip0_1212_3666)">
    <path d="M15.6416 44.3486C19.7322 44.3486 23.0322 41.0486 23.0322 36.958V29.5674H15.6416C11.551 29.5674 8.25098 32.8674 8.25098 36.958C8.25098 41.0486 11.551 44.3486 15.6416 44.3486Z" fill="#0ACF83"/>
    <path d="M8.25098 22.1709C8.25098 18.0803 11.551 14.7803 15.6416 14.7803H23.0322V29.5615H15.6416C11.551 29.5615 8.25098 26.2615 8.25098 22.1709Z" fill="#A259FF"/>
    <path d="M8.25 7.39062C8.25 3.3 11.55 0 15.6406 0H23.0312V14.7812H15.6406C11.55 14.7812 8.25 11.4812 8.25 7.39062Z" fill="#F24E1E"/>
    <path d="M23.0312 0H30.4219C34.5125 0 37.8125 3.3 37.8125 7.39062C37.8125 11.4812 34.5125 14.7812 30.4219 14.7812H23.0312V0Z" fill="#FF7262"/>
    <path d="M37.8125 22.1709C37.8125 26.2615 34.5125 29.5615 30.4219 29.5615C26.3312 29.5615 23.0312 26.2615 23.0312 22.1709C23.0312 18.0803 26.3312 14.7803 30.4219 14.7803C34.5125 14.7803 37.8125 18.0803 37.8125 22.1709Z" fill="#1ABCFE"/>
  </g>
  <defs>
    <clipPath id="clip0_1212_3666">
      <rect width="44" height="44" fill="white"/>
    </clipPath>
  </defs>
</svg>
