<svg width="45" height="44" viewBox="0 0 45 44" fill="none" xmlns="http://www.w3.org/2000/svg">
<g clip-path="url(#clip0_1212_3672)">
<path d="M27.5 11H38.5L27.5 0V11ZM27.5 12.3328H26.1671V0H9.50214C7.84298 0 6.50098 1.342 6.50098 2.99933V41.0007C6.50098 42.658 7.84298 44 9.50031 44H35.5006C37.158 44 38.5 42.658 38.5 41.0007V12.3328H27.5ZM15.0021 31.7497C14.805 31.7495 14.6097 31.7106 14.4276 31.635C14.2455 31.5595 14.08 31.4488 13.9407 31.3092C13.8013 31.1697 13.6908 31.0041 13.6155 30.8219C13.5402 30.6397 13.5014 30.4444 13.5016 30.2473C13.5017 30.0501 13.5406 29.8548 13.6162 29.6727C13.6918 29.4906 13.8025 29.3251 13.942 29.1858C14.0815 29.0465 14.2471 28.936 14.4293 28.8606C14.6115 28.7853 14.8068 28.7465 15.004 28.7467C15.4022 28.7467 15.7841 28.9049 16.0657 29.1864C16.3473 29.468 16.5055 29.8499 16.5055 30.2482C16.5055 30.6464 16.3473 31.0283 16.0657 31.3099C15.7841 31.5915 15.4004 31.7497 15.0021 31.7497ZM15.0021 25.7492C14.8007 25.7561 14.5999 25.7224 14.4117 25.65C14.2235 25.5777 14.0519 25.4681 13.9069 25.328C13.762 25.1879 13.6468 25.02 13.5681 24.8344C13.4895 24.6488 13.449 24.4492 13.4491 24.2476C13.4492 24.046 13.4899 23.8465 13.5688 23.661C13.6477 23.4755 13.7632 23.3078 13.9083 23.1678C14.0534 23.0279 14.2252 22.9186 14.4134 22.8464C14.6017 22.7743 14.8025 22.7408 15.004 22.748C15.3929 22.7616 15.7613 22.9256 16.0316 23.2056C16.3019 23.4855 16.453 23.8594 16.453 24.2486C16.453 24.6377 16.3019 25.0117 16.0316 25.2916C15.7613 25.5715 15.391 25.7356 15.0021 25.7492ZM15.0021 19.7505C14.805 19.7504 14.6097 19.7114 14.4276 19.6359C14.2455 19.5603 14.08 19.4496 13.9407 19.3101C13.8013 19.1706 13.6908 19.005 13.6155 18.8228C13.5402 18.6405 13.5014 18.4453 13.5016 18.2481C13.5017 18.0509 13.5406 17.8557 13.6162 17.6736C13.6918 17.4914 13.8025 17.326 13.942 17.1866C14.0815 17.0473 14.2471 16.9368 14.4293 16.8614C14.6115 16.7861 14.8068 16.7474 15.004 16.7475C15.4022 16.7475 15.7841 16.9057 16.0657 17.1873C16.3473 17.4689 16.5055 17.8508 16.5055 18.249C16.5055 18.6472 16.3473 19.0291 16.0657 19.3107C15.7841 19.5923 15.4004 19.7505 15.0021 19.7505ZM31.5021 31.5003H19.0025V28.9997H31.5021V31.5003ZM31.5021 25.4998H19.0025V22.9992H31.5021V25.4998ZM31.5021 19.4993H19.0025V17.0005H31.5021V19.4993Z" fill="#703DB4"/>
</g>
<defs>
<clipPath id="clip0_1212_3672">
<rect width="44" height="44" fill="white" transform="translate(0.5)"/>
</clipPath>
</defs>
</svg>
