<svg width="162" height="168" viewBox="0 0 162 168" fill="none"
  xmlns="http://www.w3.org/2000/svg">
  <g clip-path="url(#clip0_1813_5007)">
    <path d="M4.67708 70.1737L4.87492 66.5167C5.07277 65.4358 5.19867 64.3549 5.41451 63.256C5.72026 62.1571 5.93611 61.0402 6.31381 59.9593C6.74548 58.8964 7.03325 57.7975 7.55484 56.7707C8.07643 55.7619 8.47214 54.681 9.11963 53.7262C9.71317 52.7534 10.2707 51.7446 10.9902 50.8618C11.6557 49.9431 12.3391 49.0243 13.1485 48.2137L14.2996 46.9526L15.5586 45.7997C16.368 44.989 17.2853 44.3225 18.2205 43.6559C19.1019 42.9354 20.1271 42.3949 21.0803 41.8004C22.0336 41.1519 23.1127 40.7736 24.1199 40.2512C25.1451 39.7467 26.2423 39.4405 27.3035 39.0262C28.3826 38.6659 29.4978 38.4317 30.5949 38.1254L33.9583 37.585L37.2497 37.4048L40.9009 37.585L42.3937 37.657L43.1132 36.2519C44.0844 34.5225 45.1096 32.8471 46.2787 31.2798C46.8723 30.5052 47.4478 29.7125 48.1133 28.9919C48.7428 28.2353 49.4083 27.5328 50.1097 26.8662C51.4587 25.4611 52.9695 24.218 54.5163 23.0471C55.3077 22.4706 56.1171 21.9662 56.9264 21.4257C57.7718 20.9574 58.5991 20.4349 59.4625 20.0206C61.1891 19.1739 62.9518 18.3813 64.7863 17.7868L66.1533 17.3364L67.5562 16.9941C68.4914 16.7239 69.4267 16.5798 70.38 16.4176C72.2685 16.0754 74.193 15.9313 76.1175 15.8952H76.4772H76.5132C76.5492 15.8952 76.2434 15.8952 76.3873 15.8952H76.4053H76.4952H76.6931L77.4844 15.9313L79.0492 16.0033C80.1644 16.0033 80.9737 16.2195 81.909 16.3096C82.3587 16.3816 82.8263 16.4176 83.2759 16.4897L84.6788 16.814C85.6141 17.0121 86.5674 17.2283 87.4667 17.5526C89.3192 18.093 91.0819 18.8677 92.8445 19.6783C93.6898 20.1287 94.5712 20.561 95.3985 21.0474L97.8446 22.6147L100.147 24.3802C100.902 24.9747 101.586 25.6772 102.323 26.3077C103.708 27.6589 105.057 29.1 106.208 30.6673C106.838 31.4239 107.359 32.2526 107.881 33.0633L108.672 34.3063L109.374 35.6034C109.841 36.4681 110.345 37.3148 110.705 38.2335C111.064 39.1523 111.55 40.017 111.82 40.9718C112.108 41.9085 112.485 42.8453 112.719 43.8001L113.438 46.7004L113.96 48.8262L115.921 48.2857L119.194 47.7813L122.378 47.7273C123.565 47.8354 124.86 47.8714 125.777 48.1236C126.766 48.2677 127.827 48.628 128.852 48.9163C129.842 49.3306 130.885 49.6368 131.82 50.1773C132.809 50.6096 133.691 51.2402 134.608 51.7986C135.453 52.4471 136.353 53.0597 137.126 53.8163C137.953 54.5188 138.637 55.3475 139.356 56.1402C140.004 57.0049 140.687 57.8336 141.209 58.7703C141.82 59.6711 142.234 60.6619 142.72 61.6347C143.097 62.6435 143.529 63.6343 143.763 64.6972C144.105 65.724 144.231 66.8049 144.446 67.8858L144.572 69.5071L144.608 69.9215V70.0295V70.0836C144.608 70.0836 144.608 70.2457 144.608 69.9575V69.9935V70.2277L144.572 71.1284L144.518 72.9299L144.284 74.4792C144.213 75.506 143.871 76.5689 143.601 77.6498C143.331 78.7307 142.828 79.7215 142.468 80.7843L142 82.2075L142.846 82.9641C143.457 83.6127 144.087 84.2252 144.59 84.9458C144.878 85.288 145.112 85.6483 145.346 86.0266C145.579 86.405 145.831 86.7652 146.011 87.1616C146.191 87.5579 146.407 87.9362 146.587 88.3505L147.036 89.5755C147.27 90.4222 147.54 91.2509 147.63 92.1156C147.81 92.9803 147.792 93.845 147.828 94.7278L147.738 96.0969C147.738 96.6373 147.612 96.9436 147.558 97.3579C147.504 97.7542 147.414 98.1686 147.288 98.5829C147.162 98.9973 147.072 99.4296 146.91 99.8259C146.641 100.655 146.245 101.429 145.849 102.186C145.4 102.924 144.95 103.663 144.392 104.33C144.141 104.69 143.835 104.978 143.547 105.302C143.259 105.627 142.954 105.933 142.63 106.203C142 106.798 141.299 107.284 140.579 107.77L139.464 108.419L138.295 108.959C137.504 109.266 136.694 109.572 135.867 109.752C135.04 109.986 134.194 110.058 133.349 110.148L132.072 110.202L130.759 110.094L130.022 110.04L129.446 109.914L128.295 109.662L126.46 109.266L125.507 110.941C124.932 112.058 124.338 113.157 123.619 114.184C122.917 115.211 122.162 116.219 121.316 117.156C120.921 117.643 120.489 118.093 120.021 118.525C119.572 118.958 119.14 119.426 118.636 119.822C117.701 120.669 116.676 121.426 115.651 122.164C114.59 122.867 113.528 123.551 112.395 124.128C111.28 124.722 110.129 125.281 108.924 125.731C107.755 126.218 106.514 126.578 105.309 126.974C104.068 127.28 102.827 127.605 101.568 127.785C100.309 128.037 99.0317 128.109 97.7547 128.235L95.8302 128.307C95.8302 128.307 95.5784 128.307 95.6863 128.307H95.4345L94.9309 128.271L93.9057 128.235C93.2402 128.199 92.5207 128.217 91.9092 128.127L90.0567 127.893C88.8336 127.803 87.5566 127.389 86.3156 127.172C85.0925 126.83 83.8515 126.47 82.6464 126.019C81.4773 125.515 80.2543 125.101 79.1392 124.47C78.5816 124.182 77.9881 123.894 77.4305 123.587L75.8118 122.561C74.6966 121.912 73.7613 121.047 72.7182 120.309L71.0634 118.994L69.5886 120.741C68.5634 121.966 67.6821 123.317 66.477 124.38C65.3978 125.569 64.1029 126.524 62.8438 127.497C62.2143 127.983 61.4949 128.343 60.8294 128.776C60.1639 129.208 59.4804 129.622 58.743 129.911L56.5667 130.901L54.3005 131.604C53.563 131.892 52.7717 132 51.9803 132.144C51.1889 132.271 50.4335 132.487 49.6421 132.523L47.2679 132.667L46.6744 132.703H46.5305C46.5305 132.703 46.3866 132.703 46.6384 132.703H46.6204H46.5845H46.5125L46.1888 132.685L44.8938 132.613L43.5988 132.541L42.4837 132.361C41.7283 132.234 40.9908 132.18 40.2174 131.928C38.6706 131.586 37.1778 131.046 35.7029 130.469L33.5626 129.424C32.8612 129.046 32.2137 128.595 31.5302 128.199C30.2172 127.316 28.9402 126.38 27.7891 125.281C27.1776 124.776 26.638 124.182 26.1164 123.605C25.5588 123.029 25.0372 122.434 24.5876 121.786C23.5984 120.543 22.771 119.174 22.0156 117.787C21.6739 117.066 21.2782 116.381 20.9724 115.643L20.1271 113.409C19.6774 111.878 19.2637 110.347 19.0659 108.761C18.904 107.987 18.886 107.176 18.8141 106.383L18.7242 105.176V105.104C18.7242 105.104 18.7242 105.32 18.7242 105.194V105.14V104.978V104.654V104.005C18.7961 103.177 18.7421 102.222 18.886 101.483L19.2098 99.1954L19.4256 97.9344L18.3824 97.0697L15.3428 94.5656C14.4435 93.6109 13.5082 92.6921 12.6269 91.7193L11.4218 90.152C11.0261 89.6296 10.5945 89.1252 10.2348 88.5847L9.22754 86.8913C8.90379 86.3149 8.52609 85.7924 8.23831 85.198L7.44693 83.4145C7.19513 82.82 6.87137 82.2435 6.67352 81.613L6.09798 79.7395C5.91812 79.109 5.6843 78.4965 5.54041 77.866L5.19867 75.9384C5.09076 75.2899 4.94687 74.6593 4.87492 74.0108L4.65909 70.1016V70.2277L4.67708 70.1737ZM0.000717163 70.0476L0.306473 74.5152C0.396408 75.2538 0.576263 75.9744 0.702164 76.713L1.13383 78.9108C1.29572 79.6314 1.56549 80.334 1.78133 81.0546L2.48279 83.1803C2.71661 83.8829 3.0943 84.5314 3.38208 85.216L4.31737 87.2336C4.64111 87.9002 5.07277 88.5127 5.45047 89.1432L6.61957 91.0347C7.03325 91.6472 7.53687 92.2057 7.98651 92.8002L9.37143 94.5476C10.3966 95.6105 11.4758 96.6373 12.537 97.6822L16.0442 100.402L15.2169 98.2767L14.7133 101.087C14.5154 102.06 14.5514 102.834 14.4615 103.717L14.4075 104.366V104.69L14.3715 104.852V105.05V105.14L14.4075 106.527C14.4435 107.446 14.4255 108.383 14.6054 109.302C14.8032 111.157 15.2349 112.959 15.7205 114.76L16.6558 117.39C16.9975 118.255 17.4292 119.084 17.8069 119.93C18.6702 121.57 19.6235 123.191 20.7746 124.65C21.3141 125.425 21.9077 126.127 22.5552 126.812C23.1667 127.515 23.7962 128.199 24.4977 128.812C25.8286 130.109 27.3395 131.226 28.8683 132.289C29.6597 132.775 30.451 133.279 31.2784 133.712L33.7964 134.919C35.5411 135.603 37.2857 136.234 39.1203 136.63C40.0016 136.9 40.9908 136.99 41.9441 137.153L43.383 137.351L44.678 137.405L45.973 137.459H46.2967L46.5845 137.477H46.7643L47.4658 137.423L50.2536 137.243C51.1889 137.171 52.0882 136.918 53.0055 136.756C53.9228 136.576 54.8401 136.414 55.7034 136.072L58.3473 135.189L60.8654 134C61.7287 133.64 62.5201 133.153 63.2935 132.631C64.0669 132.108 64.8942 131.676 65.5957 131.082C67.0346 129.911 68.4914 128.758 69.6965 127.352C71.0455 126.073 72.0347 124.488 73.1678 123.029L70.0382 123.461C71.1893 124.326 72.2685 125.317 73.5095 126.055L75.3261 127.226C75.9556 127.587 76.6031 127.911 77.2326 128.253C78.4917 128.974 79.8406 129.46 81.1716 130.037C82.5205 130.541 83.8875 130.973 85.2724 131.37C86.6933 131.658 88.0243 132.09 89.5171 132.234L91.7114 132.523C92.4488 132.613 93.0783 132.613 93.7798 132.649L94.805 132.703H95.3086L95.5604 132.739H95.9201L98.0784 132.667C99.4993 132.559 100.956 132.487 102.359 132.216C103.78 132.018 105.183 131.676 106.586 131.352C107.971 130.937 109.356 130.541 110.687 130.001C112.036 129.496 113.349 128.884 114.644 128.217C115.939 127.569 117.162 126.794 118.385 126.001C119.572 125.155 120.741 124.308 121.838 123.335C122.414 122.885 122.917 122.362 123.439 121.858C123.978 121.354 124.482 120.831 124.95 120.273C125.939 119.21 126.838 118.021 127.683 116.832C128.529 115.625 129.248 114.346 129.932 113.031L127.144 114.31L128.888 114.634L129.752 114.778L130.489 114.814L132.108 114.904L133.763 114.796C134.86 114.67 135.975 114.526 137.036 114.202C138.115 113.95 139.158 113.535 140.166 113.085L141.659 112.346L143.061 111.463C143.961 110.833 144.86 110.166 145.633 109.392C146.047 109.031 146.425 108.635 146.785 108.203C147.144 107.788 147.522 107.392 147.828 106.924C148.511 106.059 149.069 105.104 149.608 104.149C150.094 103.159 150.544 102.168 150.885 101.105C151.083 100.601 151.191 100.06 151.335 99.5197C151.479 98.9973 151.587 98.4568 151.659 97.8623C151.713 97.3219 151.857 96.6553 151.839 96.205L151.893 94.6197C151.821 93.5208 151.785 92.4399 151.551 91.359C151.407 90.2781 151.047 89.2333 150.723 88.2064L150.112 86.6932C149.878 86.2068 149.608 85.7204 149.357 85.252C149.123 84.7656 148.799 84.3333 148.493 83.8649C148.205 83.4145 147.882 82.9641 147.522 82.5498C146.856 81.6851 146.083 80.9285 145.31 80.1899L145.687 82.3696C146.263 81.2167 146.982 80.0998 147.396 78.8748C147.846 77.6498 148.331 76.4428 148.583 75.0737C148.727 74.4071 148.889 73.7226 148.997 73.074L149.159 71.2726L149.249 70.3718V70.1556L149.267 69.8854V69.7593V69.2729L149.213 67.2913C149.033 65.9762 148.961 64.6431 148.601 63.3641C148.331 62.067 147.882 60.806 147.432 59.563C146.892 58.356 146.389 57.113 145.669 55.9961C145.022 54.8251 144.213 53.7802 143.421 52.6994C142.54 51.7085 141.695 50.6817 140.669 49.817C139.716 48.8802 138.619 48.1236 137.54 47.331C136.407 46.6464 135.274 45.9258 134.05 45.4034C132.863 44.7909 131.586 44.3946 130.327 43.9802C129.032 43.692 127.773 43.3317 126.37 43.2056C124.932 42.9714 123.816 43.0254 122.593 42.9894C121.065 43.0795 119.913 43.2776 118.582 43.4218C117.305 43.71 116.046 44.0883 114.805 44.4486L117.287 46.0339L116.838 42.7552C116.658 41.6563 116.334 40.6115 116.1 39.5126C115.885 38.4137 115.435 37.4048 115.093 36.342C114.769 35.2791 114.302 34.2703 113.834 33.2434L113.133 31.7302L112.305 30.271C111.748 29.2982 111.208 28.3254 110.525 27.4247C109.284 25.5511 107.845 23.8397 106.316 22.1824C105.525 21.3897 104.751 20.561 103.906 19.8224L101.298 17.6787L98.5101 15.7691C97.5568 15.1746 96.5496 14.6522 95.5784 14.0937C93.5639 13.0669 91.4955 12.1482 89.3372 11.4816C88.2761 11.0853 87.1789 10.8151 86.0818 10.5629L84.427 10.1665C83.8695 10.0584 83.2759 9.98638 82.7004 9.89631C81.5673 9.73418 80.3082 9.518 79.319 9.518L77.7542 9.44594L76.9629 9.40991H76.4233H75.9916C73.7434 9.46396 71.4771 9.62609 69.2469 10.0404C68.1317 10.2566 67.0166 10.4548 65.9374 10.779L64.3007 11.2294L62.6999 11.7879C60.5596 12.5084 58.5092 13.4812 56.5307 14.5621C55.5415 15.1026 54.6062 15.7331 53.653 16.3276C52.7357 16.9761 51.8184 17.6246 50.9371 18.3272C49.1925 19.7504 47.5197 21.2456 46.0269 22.921C45.2715 23.7497 44.5521 24.6144 43.9046 25.5151C43.2031 26.3798 42.5916 27.3346 41.9801 28.2714C41.3326 29.1901 40.8469 30.1989 40.2894 31.1537C39.7678 32.1445 39.3361 33.1714 38.8685 34.1802L41.0807 32.8471L37.4296 32.6309H37.1958H37.0699H36.8181L36.3325 32.667L35.3612 32.721L33.4187 32.8111C32.1237 33.0092 30.8467 33.1714 29.5517 33.4056C28.2927 33.7298 27.0157 34.0181 25.7747 34.4144C24.5516 34.8828 23.2926 35.2611 22.1235 35.8195C20.9724 36.414 19.7314 36.8824 18.6522 37.603C17.5551 38.2876 16.386 38.9181 15.3788 39.7467C14.3356 40.5214 13.2744 41.296 12.3391 42.2148L10.9002 43.5298L9.58727 44.971C8.66998 45.9078 7.89656 46.9526 7.12317 48.0155C6.29581 49.0243 5.66631 50.1773 4.98283 51.2942C4.2634 52.3751 3.79576 53.6181 3.20222 54.771C2.62668 55.942 2.26695 57.203 1.79932 58.428C1.38564 59.6711 1.11584 60.9501 0.792099 62.2111C0.540298 63.5082 0.378418 64.8593 0.162582 66.1924L-0.0352478 69.8674V69.9935L0.000717163 70.0476Z" fill="#F2F0FF"/>
    <path d="M127.108 131.028C127.108 131.028 127.108 131.298 127.144 131.82C127.162 132.325 127.324 133.423 127.665 134.432C128.043 135.495 128.655 136.738 129.644 137.927C130.633 139.116 131.964 140.269 133.619 141.152C135.273 142.035 137.216 142.665 139.32 142.881C139.878 142.899 140.328 142.953 140.993 142.935C141.497 142.899 141.892 142.935 142.522 142.845C143.727 142.737 144.806 142.485 145.921 142.107C148.116 141.332 150.274 140.035 151.929 138.089C153.619 136.162 154.644 133.676 154.608 130.811C154.59 129.875 154.285 128.199 153.781 127.1C153.295 125.893 152.54 124.848 151.731 123.93C150.058 122.074 147.918 120.903 145.777 120.201C143.637 119.516 141.353 119.336 139.428 119.516C137.27 119.75 135.471 120.327 133.835 121.137C132.234 121.966 130.885 122.993 129.878 124.128C128.87 125.245 128.205 126.434 127.791 127.479C127.414 128.523 127.234 129.406 127.18 130.001C127.126 130.595 127.108 130.919 127.108 130.919V131.009V131.028ZM130.147 130.937C130.147 130.937 130.147 130.721 130.165 130.289C130.183 129.875 130.273 129.262 130.507 128.487C130.777 127.731 131.209 126.848 131.946 125.947C132.684 125.065 133.709 124.164 135.022 123.515C136.299 122.849 137.953 122.38 139.536 122.272C141.353 122.146 143.079 122.38 144.824 122.975C146.533 123.605 148.151 124.65 149.303 126.055C149.878 126.758 150.364 127.533 150.652 128.361C150.957 129.298 151.065 129.784 151.083 131.028C150.993 132.541 150.292 134.36 149.105 135.621C147.936 136.954 146.335 137.873 144.68 138.432C143.853 138.684 142.954 138.918 142.216 138.99C141.874 139.062 141.281 139.062 140.831 139.08C140.525 139.08 140.04 139.062 139.662 139.044C138.043 138.918 136.533 138.522 135.273 137.909C132.684 136.702 131.263 134.739 130.687 133.315C130.417 132.523 130.309 132.126 130.237 131.622C130.201 131.118 130.165 130.847 130.165 130.847V130.937H130.147Z" fill="#F2F0FF"/>
    <path d="M147.45 152.249C147.45 152.249 147.45 152.375 147.468 152.609C147.486 152.843 147.45 153.132 147.702 153.852C147.9 154.573 148.278 155.149 148.781 155.798C149.303 156.41 149.986 157.023 150.832 157.491C151.677 157.96 152.666 158.32 153.745 158.428L154.159 158.482H154.375L154.483 158.518H154.717L155.382 158.482C155.742 158.5 156.551 158.32 157.163 158.158C158.35 157.743 159.519 157.167 160.436 156.104C161.371 155.077 162.019 153.618 161.983 152.087V151.853H161.965V151.781V151.69L161.911 151.51L161.839 151.132C161.839 151.042 161.785 150.844 161.695 150.628L161.461 150.033C161.299 149.601 161.102 149.312 160.886 149.042C160.67 148.772 160.49 148.466 160.22 148.268C159.285 147.277 158.098 146.808 157.001 146.466C155.868 146.214 154.771 146.106 153.745 146.25C153.53 146.286 153.332 146.286 153.098 146.34C152.828 146.412 152.576 146.484 152.324 146.538C151.803 146.664 151.389 146.899 150.993 147.079C150.184 147.493 149.519 148.033 148.979 148.574C148.475 149.15 148.044 149.709 147.846 150.267C147.576 150.79 147.522 151.276 147.468 151.582C147.414 151.907 147.396 152.069 147.396 152.069V152.231L147.45 152.249ZM150.148 152.069C150.148 152.069 150.148 151.997 150.166 151.835C150.166 151.69 150.166 151.456 150.274 151.186C150.4 150.628 150.958 149.763 152.109 149.294C152.396 149.204 152.684 149.042 152.972 149.024L153.404 148.934C153.565 148.916 153.817 148.916 154.015 148.898C154.717 148.844 155.454 149.006 156.137 149.258C156.785 149.565 157.45 149.943 157.81 150.501C157.936 150.61 157.972 150.772 158.062 150.898C158.152 151.042 158.224 151.168 158.206 151.222C158.206 151.258 158.224 151.294 158.242 151.33C158.26 151.33 158.296 151.384 158.296 151.546V151.925L158.332 152.123V152.213V152.267V152.303C158.332 152.213 158.332 152.537 158.332 152.087C158.26 152.591 158.008 153.042 157.612 153.492C157.235 153.942 156.569 154.231 156.012 154.465C155.706 154.501 155.634 154.663 155.076 154.681L154.411 154.771H154.375H154.357C154.357 154.771 154.645 154.771 154.501 154.771H154.447H154.321H154.087C153.44 154.807 152.846 154.645 152.324 154.465C151.803 154.285 151.389 154.014 151.065 153.744C150.778 153.474 150.526 153.132 150.472 153.006C150.328 152.933 150.274 152.501 150.238 152.285C150.202 152.051 150.166 151.925 150.166 151.925V152.087L150.148 152.069Z" fill="#F2F0FF"/>
    <path d="M67.4373 89.9688C67.4373 90.3252 67.5788 90.6669 67.8309 90.9189C68.0829 91.1709 68.4246 91.3125 68.781 91.3125H82.2185C82.5749 91.3125 82.9167 91.1709 83.1687 90.9189C83.4207 90.6669 83.5623 90.3252 83.5623 89.9688C83.5623 89.6124 83.4207 89.2706 83.1687 89.0186C82.9167 88.7666 82.5749 88.625 82.2185 88.625H68.781C68.4246 88.625 68.0829 88.7666 67.8309 89.0186C67.5788 89.2706 67.4373 89.6124 67.4373 89.9688ZM60.7185 68.4688C60.7127 70.7089 61.2188 72.9207 62.1981 74.9354C63.1773 76.9501 64.6039 78.7145 66.369 80.0939C66.699 80.3469 66.9669 80.6719 67.152 81.0443C67.3372 81.4166 67.4347 81.8264 67.4373 82.2422V83.25C67.4373 83.9628 67.7204 84.6464 68.2244 85.1504C68.7284 85.6544 69.412 85.9375 70.1248 85.9375H80.8748C81.5875 85.9375 82.2711 85.6544 82.7751 85.1504C83.2791 84.6464 83.5623 83.9628 83.5623 83.25V82.2422C83.5626 81.8313 83.657 81.426 83.8384 81.0574C84.0198 80.6887 84.2834 80.3666 84.6087 80.1157C86.3694 78.7445 87.795 76.9907 88.7777 74.9872C89.7605 72.9836 90.2745 70.7827 90.281 68.5511C90.3247 60.5457 83.8545 53.879 75.8559 53.6875C73.885 53.64 71.9246 53.9873 70.0899 54.7088C68.2553 55.4303 66.5835 56.5116 65.173 57.8889C63.7625 59.2662 62.6417 60.9118 61.8768 62.7288C61.1118 64.5457 60.718 66.4973 60.7185 68.4688ZM66.112 66.8999C66.4604 64.9537 67.3968 63.1609 68.7951 61.7629C70.1933 60.365 71.9863 59.429 73.9326 59.081C74.1067 59.0517 74.2848 59.0569 74.4568 59.0964C74.6288 59.1359 74.7914 59.2089 74.9352 59.3112C75.079 59.4135 75.2012 59.5432 75.2949 59.6927C75.3886 59.8423 75.452 60.0088 75.4813 60.1829C75.5106 60.3569 75.5054 60.535 75.4659 60.707C75.4264 60.8791 75.3534 61.0416 75.2511 61.1854C75.1488 61.3292 75.0191 61.4515 74.8696 61.5452C74.72 61.6389 74.5535 61.7022 74.3794 61.7315C71.5962 62.2002 69.2345 64.5618 68.7626 67.3501C68.7094 67.6631 68.5471 67.9471 68.3045 68.1519C68.062 68.3566 67.7547 68.4689 67.4373 68.4688C67.3613 68.4683 67.2855 68.4621 67.2105 68.4503C66.8593 68.3903 66.5462 68.1933 66.3402 67.9026C66.1342 67.6118 66.0521 67.2512 66.112 66.8999Z" fill="#2E0081"/>
  </g>
  <defs>
    <clipPath id="clip0_1813_5007">
      <rect width="162" height="149" fill="white" transform="matrix(-1 0 0 1 162 9.5)"/>
    </clipPath>
  </defs>
</svg>
