<svg width="25" height="24" viewBox="0 0 25 24" fill="none" xmlns="http://www.w3.org/2000/svg">
<path d="M19.8346 4.49998V19.5C19.8347 19.6484 19.7908 19.7935 19.7084 19.917C19.626 20.0404 19.5088 20.1366 19.3717 20.1934C19.2345 20.2503 19.0837 20.2651 18.9381 20.2361C18.7925 20.2071 18.6588 20.1356 18.5539 20.0306L12.3346 13.8103V19.5C12.3347 19.6484 12.2908 19.7935 12.2084 19.917C12.126 20.0404 12.0088 20.1366 11.8717 20.1934C11.7346 20.2503 11.5837 20.2651 11.4381 20.2361C11.2925 20.2071 11.1588 20.1356 11.0539 20.0306L3.55395 12.5306C3.48422 12.461 3.4289 12.3782 3.39115 12.2872C3.35341 12.1961 3.33398 12.0985 3.33398 12C3.33398 11.9014 3.35341 11.8038 3.39115 11.7128C3.4289 11.6217 3.48422 11.539 3.55395 11.4694L11.0539 3.96936C11.1588 3.86435 11.2925 3.79282 11.4381 3.76383C11.5837 3.73485 11.7346 3.7497 11.8717 3.80651C12.0088 3.86333 12.126 3.95955 12.2084 4.08299C12.2908 4.20644 12.3347 4.35156 12.3346 4.49998V10.1897L18.5539 3.96936C18.6588 3.86435 18.7925 3.79282 18.9381 3.76383C19.0837 3.73485 19.2345 3.7497 19.3717 3.80651C19.5088 3.86333 19.626 3.95955 19.7084 4.08299C19.7908 4.20644 19.8347 4.35156 19.8346 4.49998Z" fill="#999999"/>
</svg>
