<svg width="162" height="168" viewBox="0 0 162 168" fill="none" xmlns="http://www.w3.org/2000/svg">
<g clip-path="url(#clip0_1813_5007)">
<path d="M126.108 137.028C126.108 137.028 126.108 137.298 126.144 137.82C126.162 138.325 126.324 139.423 126.665 140.432C127.043 141.495 127.655 142.738 128.644 143.927C129.633 145.116 130.964 146.269 132.619 147.152C134.273 148.035 136.216 148.665 138.32 148.881C138.878 148.899 139.328 148.953 139.993 148.935C140.497 148.899 140.892 148.935 141.522 148.845C142.727 148.737 143.806 148.485 144.921 148.107C147.116 147.332 149.274 146.035 150.929 144.089C152.619 142.162 153.644 139.676 153.608 136.811C153.59 135.875 153.285 134.199 152.781 133.1C152.295 131.893 151.54 130.848 150.731 129.93C149.058 128.074 146.918 126.903 144.777 126.201C142.637 125.516 140.353 125.336 138.428 125.516C136.27 125.75 134.471 126.327 132.835 127.137C131.234 127.966 129.885 128.993 128.878 130.128C127.87 131.245 127.205 132.434 126.791 133.479C126.414 134.523 126.234 135.406 126.18 136.001C126.126 136.595 126.108 136.919 126.108 136.919V137.009V137.028ZM129.147 136.937C129.147 136.937 129.147 136.721 129.165 136.289C129.183 135.875 129.273 135.262 129.507 134.487C129.777 133.731 130.209 132.848 130.946 131.947C131.684 131.065 132.709 130.164 134.022 129.515C135.299 128.849 136.953 128.38 138.536 128.272C140.353 128.146 142.079 128.38 143.824 128.975C145.533 129.605 147.151 130.65 148.303 132.055C148.878 132.758 149.364 133.533 149.652 134.361C149.957 135.298 150.065 135.784 150.083 137.028C149.993 138.541 149.292 140.36 148.105 141.621C146.936 142.954 145.335 143.873 143.68 144.432C142.853 144.684 141.954 144.918 141.216 144.99C140.874 145.062 140.281 145.062 139.831 145.08C139.525 145.08 139.04 145.062 138.662 145.044C137.043 144.918 135.533 144.522 134.273 143.909C131.684 142.702 130.263 140.739 129.687 139.315C129.417 138.523 129.309 138.126 129.237 137.622C129.201 137.118 129.165 136.847 129.165 136.847V136.937H129.147Z" fill="#F2F0FF"/>
<path d="M147.45 152.249C147.45 152.249 147.45 152.375 147.468 152.609C147.486 152.843 147.45 153.132 147.702 153.852C147.9 154.573 148.278 155.149 148.781 155.798C149.303 156.41 149.986 157.023 150.832 157.491C151.677 157.96 152.666 158.32 153.745 158.428L154.159 158.482H154.375L154.483 158.518H154.717L155.382 158.482C155.742 158.5 156.551 158.32 157.163 158.158C158.35 157.743 159.519 157.167 160.436 156.104C161.371 155.077 162.019 153.618 161.983 152.087V151.853H161.965V151.781V151.69L161.911 151.51L161.839 151.132C161.839 151.042 161.785 150.844 161.695 150.628L161.461 150.033C161.299 149.601 161.102 149.312 160.886 149.042C160.67 148.772 160.49 148.466 160.22 148.268C159.285 147.277 158.098 146.808 157.001 146.466C155.868 146.214 154.771 146.106 153.745 146.25C153.53 146.286 153.332 146.286 153.098 146.34C152.828 146.412 152.576 146.484 152.324 146.538C151.803 146.664 151.389 146.899 150.993 147.079C150.184 147.493 149.519 148.033 148.979 148.574C148.475 149.15 148.044 149.709 147.846 150.267C147.576 150.79 147.522 151.276 147.468 151.582C147.414 151.907 147.396 152.069 147.396 152.069V152.231L147.45 152.249ZM150.148 152.069C150.148 152.069 150.148 151.997 150.166 151.835C150.166 151.69 150.166 151.456 150.274 151.186C150.4 150.628 150.958 149.763 152.109 149.294C152.396 149.204 152.684 149.042 152.972 149.024L153.404 148.934C153.565 148.916 153.817 148.916 154.015 148.898C154.717 148.844 155.454 149.006 156.137 149.258C156.785 149.565 157.45 149.943 157.81 150.501C157.936 150.61 157.972 150.772 158.062 150.898C158.152 151.042 158.224 151.168 158.206 151.222C158.206 151.258 158.224 151.294 158.242 151.33C158.26 151.33 158.296 151.384 158.296 151.546V151.925L158.332 152.123V152.213V152.267V152.303C158.332 152.213 158.332 152.537 158.332 152.087C158.26 152.591 158.008 153.042 157.612 153.492C157.235 153.942 156.569 154.231 156.012 154.465C155.706 154.501 155.634 154.663 155.076 154.681L154.411 154.771H154.375H154.357C154.357 154.771 154.645 154.771 154.501 154.771H154.447H154.321H154.087C153.44 154.807 152.846 154.645 152.324 154.465C151.803 154.285 151.389 154.014 151.065 153.744C150.778 153.474 150.526 153.132 150.472 153.006C150.328 152.933 150.274 152.501 150.238 152.285C150.202 152.051 150.166 151.925 150.166 151.925V152.087L150.148 152.069Z" fill="#F2F0FF"/>
<path d="M3.03587 72.6377L3.34163 77.1053C3.43156 77.8439 3.61142 78.5645 3.73732 79.3031L4.16899 81.5009C4.33087 82.2215 4.60065 82.9241 4.81648 83.6447L5.51794 85.7704C5.75177 86.473 6.12946 87.1215 6.41724 87.8061L7.35252 89.8237C7.67627 90.4903 8.10793 91.1028 8.48563 91.7333L9.65472 93.6248C10.0684 94.2374 10.572 94.7958 11.0217 95.3903L12.4066 97.1377C13.4318 98.2006 14.511 99.2274 15.5721 100.272L19.0794 102.993L18.252 100.867L17.7484 103.677C17.5506 104.65 17.5866 105.425 17.4966 106.307L17.4427 106.956V107.28L17.4067 107.442V107.64V107.73L17.4427 109.118C17.4786 110.036 17.4607 110.973 17.6405 111.892C17.8384 113.747 18.27 115.549 18.7556 117.35L19.6909 119.98C20.0327 120.845 20.4643 121.674 20.842 122.521C21.7054 124.16 22.6586 125.781 23.8097 127.24C24.3493 128.015 24.9428 128.718 25.5903 129.402C26.2019 130.105 26.8314 130.789 27.5328 131.402C28.8638 132.699 30.3746 133.816 31.9034 134.879C32.6948 135.365 33.4862 135.869 34.3135 136.302L36.8316 137.509C38.5762 138.193 40.3209 138.824 42.1554 139.22C43.0368 139.49 44.026 139.58 44.9792 139.743L46.4181 139.941L47.7131 139.995L49.0081 140.049H49.3319L49.6196 140.067H49.7995L50.5009 140.013L53.2888 139.833C54.2241 139.761 55.1234 139.508 56.0406 139.346C56.9579 139.166 57.8752 139.004 58.7385 138.662L61.3825 137.779L63.9005 136.59C64.7639 136.23 65.5552 135.743 66.3286 135.221C67.102 134.698 67.9294 134.266 68.6309 133.672C70.0697 132.501 71.5266 131.348 72.7317 129.943C74.0806 128.664 75.0698 127.078 76.203 125.619L73.0734 126.051C74.2245 126.916 75.3037 127.907 76.5447 128.646L78.3613 129.816C78.9908 130.177 79.6383 130.501 80.2678 130.843C81.5268 131.564 82.8758 132.05 84.2067 132.627C85.5557 133.131 86.9226 133.564 88.3075 133.96C89.7284 134.248 91.0594 134.68 92.5522 134.825L94.7465 135.113C95.484 135.203 96.1135 135.203 96.8149 135.239L97.8401 135.293H98.3437L98.5956 135.329H98.9553L101.114 135.257C102.534 135.149 103.991 135.077 105.394 134.807C106.815 134.608 108.218 134.266 109.621 133.942C111.006 133.528 112.391 133.131 113.722 132.591C115.071 132.086 116.384 131.474 117.679 130.807C118.974 130.159 120.197 129.384 121.42 128.591C122.607 127.745 123.776 126.898 124.873 125.925C125.449 125.475 125.952 124.952 126.474 124.448C127.013 123.944 127.517 123.421 127.985 122.863C128.974 121.8 129.873 120.611 130.719 119.422C131.564 118.215 132.283 116.936 132.967 115.621L130.179 116.9L131.924 117.224L132.787 117.368L133.524 117.404L135.143 117.494L136.798 117.386C137.895 117.26 139.01 117.116 140.071 116.792C141.15 116.54 142.194 116.125 143.201 115.675L144.694 114.936L146.097 114.054C146.996 113.423 147.895 112.757 148.669 111.982C149.082 111.622 149.46 111.225 149.82 110.793C150.179 110.379 150.557 109.982 150.863 109.514C151.546 108.649 152.104 107.694 152.644 106.74C153.129 105.749 153.579 104.758 153.921 103.695C154.118 103.191 154.226 102.65 154.37 102.11C154.514 101.587 154.622 101.047 154.694 100.452C154.748 99.912 154.892 99.2455 154.874 98.7951L154.928 97.2098C154.856 96.1109 154.82 95.03 154.586 93.9491C154.442 92.8682 154.082 91.8234 153.759 90.7965L153.147 89.2833C152.913 88.7969 152.644 88.3105 152.392 87.8421C152.158 87.3557 151.834 86.9234 151.528 86.455C151.241 86.0046 150.917 85.5542 150.557 85.1399C149.892 84.2752 149.118 83.5186 148.345 82.78L148.723 84.9597C149.298 83.8068 150.018 82.6899 150.431 81.4649C150.881 80.2399 151.367 79.0329 151.618 77.6638C151.762 76.9972 151.924 76.3127 152.032 75.6641L152.194 73.8627L152.284 72.9619V72.7457L152.302 72.4755V72.3494V71.863L152.248 69.8814C152.068 68.5663 151.996 67.2332 151.636 65.9542C151.367 64.6571 150.917 63.3961 150.467 62.1531C149.928 60.9461 149.424 59.7031 148.705 58.5862C148.057 57.4152 147.248 56.3703 146.456 55.2895C145.575 54.2986 144.73 53.2718 143.704 52.4071C142.751 51.4703 141.654 50.7137 140.575 49.9211C139.442 49.2365 138.309 48.5159 137.086 47.9935C135.899 47.381 134.622 46.9846 133.363 46.5703C132.068 46.2821 130.808 45.9218 129.406 45.7957C127.967 45.5615 126.852 45.6155 125.629 45.5795C124.1 45.6696 122.949 45.8677 121.618 46.0119C120.341 46.3001 119.082 46.6784 117.841 47.0387L120.323 48.624L119.873 45.3453C119.693 44.2464 119.369 43.2016 119.136 42.1027C118.92 41.0038 118.47 39.9949 118.128 38.9321C117.805 37.8692 117.337 36.8604 116.869 35.8335L116.168 34.3203L115.341 32.8611C114.783 31.8883 114.243 30.9155 113.56 30.0148C112.319 28.1412 110.88 26.4298 109.351 24.7725C108.56 23.9798 107.786 23.1511 106.941 22.4125L104.333 20.2688L101.545 18.3592C100.592 17.7647 99.5848 17.2423 98.6135 16.6838C96.5991 15.657 94.5307 14.7382 92.3724 14.0717C91.3112 13.6754 90.2141 13.4052 89.1169 13.1529L87.4622 12.7566C86.9046 12.6485 86.3111 12.5765 85.7355 12.4864C84.6024 12.3243 83.3434 12.1081 82.3542 12.1081L80.7894 12.036L79.998 12H79.4584H79.0268C76.7785 12.054 74.5123 12.2162 72.282 12.6305C71.1669 12.8467 70.0517 13.0449 68.9726 13.3691L67.3359 13.8195L65.7351 14.3779C63.5948 15.0985 61.5444 16.0713 59.5659 17.1522C58.5767 17.6927 57.6414 18.3232 56.6881 18.9177C55.7708 19.5662 54.8536 20.2147 53.9723 20.9173C52.2276 22.3405 50.5549 23.8357 49.0621 25.5111C48.3067 26.3397 47.5872 27.2045 46.9397 28.1052C46.2383 28.9699 45.6267 29.9247 45.0152 30.8614C44.3677 31.7802 43.8821 32.789 43.3245 33.7438C42.8029 34.7346 42.3713 35.7615 41.9036 36.7703L44.1159 35.4372L40.4648 35.221H40.2309H40.105H39.8532L39.3676 35.257L38.3964 35.3111L36.4539 35.4012C35.1589 35.5993 33.8819 35.7615 32.5869 35.9957C31.3279 36.3199 30.0509 36.6082 28.8098 37.0045C27.5868 37.4729 26.3278 37.8512 25.1587 38.4096C24.0076 39.0041 22.7665 39.4725 21.6874 40.1931C20.5902 40.8777 19.4211 41.5082 18.4139 42.3368C17.3707 43.1115 16.3096 43.8861 15.3743 44.8049L13.9354 46.1199L12.6224 47.5611C11.7051 48.4979 10.9317 49.5427 10.1583 50.6056C9.33096 51.6144 8.70146 52.7674 8.01799 53.8843C7.29855 54.9652 6.83092 56.2082 6.23738 57.3611C5.66183 58.5321 5.30211 59.7931 4.83447 61.0181C4.42079 62.2612 4.151 63.5402 3.82726 64.8012C3.57545 66.0983 3.41357 67.4494 3.19774 68.7825L2.99991 72.4575V72.5836L3.03587 72.6377Z" fill="#F2F0FF"/>
<g clip-path="url(#clip1_1813_5007)">
<path d="M61.5 64.875H67.875C68.4386 64.875 68.9791 64.6511 69.3776 64.2526C69.7761 63.8541 70 63.3136 70 62.75V60.625C70 59.4978 70.4478 58.4168 71.2448 57.6198C72.0418 56.8228 73.1228 56.375 74.25 56.375C75.3772 56.375 76.4582 56.8228 77.2552 57.6198C78.0522 58.4168 78.5 59.4978 78.5 60.625V62.75C78.5 63.3136 78.7239 63.8541 79.1224 64.2526C79.5209 64.6511 80.0614 64.875 80.625 64.875H87C87.5636 64.875 88.1041 65.0989 88.5026 65.4974C88.9011 65.8959 89.125 66.4364 89.125 67V73.375C89.125 73.9386 89.3489 74.4791 89.7474 74.8776C90.1459 75.2761 90.6864 75.5 91.25 75.5H93.375C94.5022 75.5 95.5832 75.9478 96.3802 76.7448C97.1772 77.5418 97.625 78.6228 97.625 79.75C97.625 80.8772 97.1772 81.9582 96.3802 82.7552C95.5832 83.5522 94.5022 84 93.375 84H91.25C90.6864 84 90.1459 84.2239 89.7474 84.6224C89.3489 85.0209 89.125 85.5614 89.125 86.125V92.5C89.125 93.0636 88.9011 93.6041 88.5026 94.0026C88.1041 94.4011 87.5636 94.625 87 94.625H80.625C80.0614 94.625 79.5209 94.4011 79.1224 94.0026C78.7239 93.6041 78.5 93.0636 78.5 92.5V90.375C78.5 89.2478 78.0522 88.1668 77.2552 87.3698C76.4582 86.5728 75.3772 86.125 74.25 86.125C73.1228 86.125 72.0418 86.5728 71.2448 87.3698C70.4478 88.1668 70 89.2478 70 90.375V92.5C70 93.0636 69.7761 93.6041 69.3776 94.0026C68.9791 94.4011 68.4386 94.625 67.875 94.625H61.5C60.9364 94.625 60.3959 94.4011 59.9974 94.0026C59.5989 93.6041 59.375 93.0636 59.375 92.5V86.125C59.375 85.5614 59.5989 85.0209 59.9974 84.6224C60.3959 84.2239 60.9364 84 61.5 84H63.625C64.7522 84 65.8332 83.5522 66.6302 82.7552C67.4272 81.9582 67.875 80.8772 67.875 79.75C67.875 78.6228 67.4272 77.5418 66.6302 76.7448C65.8332 75.9478 64.7522 75.5 63.625 75.5H61.5C60.9364 75.5 60.3959 75.2761 59.9974 74.8776C59.5989 74.4791 59.375 73.9386 59.375 73.375V67C59.375 66.4364 59.5989 65.8959 59.9974 65.4974C60.3959 65.0989 60.9364 64.875 61.5 64.875Z" stroke="#2E0081" stroke-width="2" stroke-linecap="round" stroke-linejoin="round"/>
</g>
<path d="M394.347 123.182C408.813 122.382 423.221 125.327 436.007 131.715C449.07 138.241 464.236 137.585 476.577 129.955C488.738 122.437 495.999 109.389 495.999 95.0543V-88.3725C495.999 -97.1724 488.862 -104.309 480.062 -104.309H296.636C292.173 -104.309 289.837 -107.008 288.843 -108.618C287.987 -109.999 286.244 -113.7 288.483 -118.183C297.346 -135.92 301.442 -155.865 300.328 -175.86C297.082 -234.171 248.803 -281.63 190.416 -283.908C158.874 -285.149 129.048 -273.801 106.367 -251.986C83.6743 -230.163 71.1772 -200.808 71.1772 -169.331C71.1772 -151.29 75.2552 -134.017 83.303 -117.988C85.4783 -113.657 83.7667 -110.038 82.9317 -108.682C81.9229 -107.048 79.5612 -104.309 75.064 -104.309H-108.372C-117.172 -104.309 -124.309 -97.1724 -124.309 -88.3725V95.0527C-124.309 99.5148 -127.008 101.849 -128.619 102.845C-129.999 103.701 -133.7 105.443 -138.183 103.206C-155.918 94.3452 -175.852 90.2432 -195.857 91.3587C-254.168 94.6049 -301.629 142.882 -303.907 201.267C-305.138 232.784 -293.802 262.636 -271.987 285.319C-250.163 308.012 -220.808 320.511 -189.33 320.511C-171.288 320.511 -154.015 316.433 -137.987 308.385C-133.649 306.21 -130.034 307.923 -128.68 308.757C-127.046 309.765 -124.307 312.127 -124.307 316.624V500.064C-124.307 508.864 -117.171 516 -108.371 516H75.0544C89.3906 516 102.436 508.74 109.955 496.579C117.585 484.238 118.243 469.071 111.716 456.007C105.33 443.221 102.377 428.815 103.182 414.345C105.524 372.267 140.374 338.017 182.514 336.374C205.269 335.49 226.853 343.668 243.229 359.421C259.614 375.179 268.639 396.375 268.639 419.103C268.639 432.134 265.7 444.598 259.903 456.147C253.396 469.103 254.043 484.183 261.632 496.486C269.168 508.703 282.25 515.997 296.624 515.997H480.062C488.862 515.997 495.999 508.861 495.997 500.061V316.624C495.997 302.25 488.703 289.168 476.486 281.632C464.184 274.043 449.106 273.398 436.147 279.901C424.597 285.699 412.133 288.639 399.102 288.639C376.374 288.639 355.179 279.614 339.419 263.227C323.668 246.849 315.483 225.286 316.372 202.51C318.019 160.37 352.269 125.524 394.347 123.182ZM316.447 285.321C338.272 308.012 367.626 320.511 399.104 320.511C417.145 320.511 434.418 316.433 450.45 308.385C454.781 306.208 458.399 307.922 459.753 308.757C461.387 309.765 464.126 312.127 464.126 316.624V484.125H296.626C292.127 484.125 289.767 481.385 288.758 479.752C287.923 478.395 286.215 474.778 288.389 470.447C296.433 454.416 300.513 437.142 300.513 419.102C300.513 387.625 288.016 358.27 265.323 336.447C243.755 315.702 215.707 304.435 185.905 304.435C184.367 304.435 182.82 304.465 181.272 304.522C122.887 306.8 74.6066 354.259 71.3588 412.57C70.2465 432.565 74.3437 452.51 83.2058 470.246C85.4448 474.732 83.6998 478.431 82.8456 479.812C81.8496 481.422 79.515 484.121 75.0528 484.121H-92.4378V316.621C-92.4378 302.247 -99.7318 289.165 -111.948 281.629C-124.25 274.041 -139.33 273.394 -152.288 279.898C-163.838 285.695 -176.3 288.636 -189.331 288.636C-212.059 288.636 -233.256 279.611 -249.017 263.224C-264.767 246.845 -272.951 225.283 -272.061 202.507C-270.414 160.367 -236.164 125.521 -194.087 123.178C-179.625 122.378 -165.212 125.323 -152.428 131.712C-139.367 138.237 -124.2 137.582 -111.858 129.953C-99.6951 122.434 -92.4346 109.387 -92.4346 95.0511V-72.4395H75.0656C89.44 -72.4395 102.522 -79.7335 110.058 -91.9501C117.647 -104.25 118.294 -119.332 111.789 -132.289C105.991 -143.84 103.051 -156.302 103.051 -169.333C103.051 -192.061 112.076 -213.256 128.461 -229.015C144.839 -244.765 166.399 -252.96 189.176 -252.062C231.318 -250.419 266.164 -216.169 268.507 -174.091C269.313 -159.62 266.363 -145.215 259.974 -132.428C253.447 -119.365 254.105 -104.199 261.735 -91.8577C269.253 -79.6968 282.301 -72.4363 296.636 -72.4363H464.126V95.0527C464.126 99.5148 461.427 101.851 459.817 102.845C458.434 103.701 454.735 105.443 450.252 103.206C432.517 94.3452 412.586 90.2432 392.578 91.3587C334.267 94.6049 286.806 142.882 284.527 201.269C283.295 232.786 294.634 262.637 316.447 285.321Z" fill="black"/>
</g>
<defs>
<clipPath id="clip0_1813_5007">
<rect width="162" height="149" fill="white" transform="matrix(-1 0 0 1 162 9.5)"/>
</clipPath>
<clipPath id="clip1_1813_5007">
<rect width="51" height="51" fill="white" transform="translate(53 50)"/>
</clipPath>
</defs>
</svg>
