<svg width="162" height="168" viewBox="0 0 162 168" fill="none" xmlns="http://www.w3.org/2000/svg">
<g clip-path="url(#clip0_1813_5007)">
<path d="M126.108 137.028C126.108 137.028 126.108 137.298 126.144 137.82C126.162 138.325 126.324 139.423 126.665 140.432C127.043 141.495 127.655 142.738 128.644 143.927C129.633 145.116 130.964 146.269 132.619 147.152C134.273 148.035 136.216 148.665 138.32 148.881C138.878 148.899 139.328 148.953 139.993 148.935C140.497 148.899 140.892 148.935 141.522 148.845C142.727 148.737 143.806 148.485 144.921 148.107C147.116 147.332 149.274 146.035 150.929 144.089C152.619 142.162 153.644 139.676 153.608 136.811C153.59 135.875 153.285 134.199 152.781 133.1C152.295 131.893 151.54 130.848 150.731 129.93C149.058 128.074 146.918 126.903 144.777 126.201C142.637 125.516 140.353 125.336 138.428 125.516C136.27 125.75 134.471 126.327 132.835 127.137C131.234 127.966 129.885 128.993 128.878 130.128C127.87 131.245 127.205 132.434 126.791 133.479C126.414 134.523 126.234 135.406 126.18 136.001C126.126 136.595 126.108 136.919 126.108 136.919V137.009V137.028ZM129.147 136.937C129.147 136.937 129.147 136.721 129.165 136.289C129.183 135.875 129.273 135.262 129.507 134.487C129.777 133.731 130.209 132.848 130.946 131.947C131.684 131.065 132.709 130.164 134.022 129.515C135.299 128.849 136.953 128.38 138.536 128.272C140.353 128.146 142.079 128.38 143.824 128.975C145.533 129.605 147.151 130.65 148.303 132.055C148.878 132.758 149.364 133.533 149.652 134.361C149.957 135.298 150.065 135.784 150.083 137.028C149.993 138.541 149.292 140.36 148.105 141.621C146.936 142.954 145.335 143.873 143.68 144.432C142.853 144.684 141.954 144.918 141.216 144.99C140.874 145.062 140.281 145.062 139.831 145.08C139.525 145.08 139.04 145.062 138.662 145.044C137.043 144.918 135.533 144.522 134.273 143.909C131.684 142.702 130.263 140.739 129.687 139.315C129.417 138.523 129.309 138.126 129.237 137.622C129.201 137.118 129.165 136.847 129.165 136.847V136.937H129.147Z" fill="#F2F0FF"/>
<path d="M147.45 152.249C147.45 152.249 147.45 152.375 147.468 152.609C147.486 152.843 147.45 153.132 147.702 153.852C147.9 154.573 148.278 155.149 148.781 155.798C149.303 156.41 149.986 157.023 150.832 157.491C151.677 157.96 152.666 158.32 153.745 158.428L154.159 158.482H154.375L154.483 158.518H154.717L155.382 158.482C155.742 158.5 156.551 158.32 157.163 158.158C158.35 157.743 159.519 157.167 160.436 156.104C161.371 155.077 162.019 153.618 161.983 152.087V151.853H161.965V151.781V151.69L161.911 151.51L161.839 151.132C161.839 151.042 161.785 150.844 161.695 150.628L161.461 150.033C161.299 149.601 161.102 149.312 160.886 149.042C160.67 148.772 160.49 148.466 160.22 148.268C159.285 147.277 158.098 146.808 157.001 146.466C155.868 146.214 154.771 146.106 153.745 146.25C153.53 146.286 153.332 146.286 153.098 146.34C152.828 146.412 152.576 146.484 152.324 146.538C151.803 146.664 151.389 146.899 150.993 147.079C150.184 147.493 149.519 148.033 148.979 148.574C148.475 149.15 148.044 149.709 147.846 150.267C147.576 150.79 147.522 151.276 147.468 151.582C147.414 151.907 147.396 152.069 147.396 152.069V152.231L147.45 152.249ZM150.148 152.069C150.148 152.069 150.148 151.997 150.166 151.835C150.166 151.69 150.166 151.456 150.274 151.186C150.4 150.628 150.958 149.763 152.109 149.294C152.396 149.204 152.684 149.042 152.972 149.024L153.404 148.934C153.565 148.916 153.817 148.916 154.015 148.898C154.717 148.844 155.454 149.006 156.137 149.258C156.785 149.565 157.45 149.943 157.81 150.501C157.936 150.61 157.972 150.772 158.062 150.898C158.152 151.042 158.224 151.168 158.206 151.222C158.206 151.258 158.224 151.294 158.242 151.33C158.26 151.33 158.296 151.384 158.296 151.546V151.925L158.332 152.123V152.213V152.267V152.303C158.332 152.213 158.332 152.537 158.332 152.087C158.26 152.591 158.008 153.042 157.612 153.492C157.235 153.942 156.569 154.231 156.012 154.465C155.706 154.501 155.634 154.663 155.076 154.681L154.411 154.771H154.375H154.357C154.357 154.771 154.645 154.771 154.501 154.771H154.447H154.321H154.087C153.44 154.807 152.846 154.645 152.324 154.465C151.803 154.285 151.389 154.014 151.065 153.744C150.778 153.474 150.526 153.132 150.472 153.006C150.328 152.933 150.274 152.501 150.238 152.285C150.202 152.051 150.166 151.925 150.166 151.925V152.087L150.148 152.069Z" fill="#F2F0FF"/>
<path d="M3.03587 72.6377L3.34163 77.1053C3.43156 77.8439 3.61142 78.5645 3.73732 79.3031L4.16899 81.5009C4.33087 82.2215 4.60065 82.9241 4.81648 83.6447L5.51794 85.7704C5.75176 86.473 6.12946 87.1215 6.41724 87.8061L7.35252 89.8237C7.67627 90.4903 8.10792 91.1028 8.48563 91.7333L9.65472 93.6248C10.0684 94.2373 10.572 94.7958 11.0217 95.3903L12.4066 97.1377C13.4318 98.2006 14.511 99.2274 15.5721 100.272L19.0794 102.993L18.252 100.867L17.7484 103.677C17.5506 104.65 17.5866 105.425 17.4966 106.307L17.4427 106.956V107.28L17.4067 107.442V107.64V107.73L17.4427 109.118C17.4786 110.036 17.4607 110.973 17.6405 111.892C17.8384 113.747 18.27 115.549 18.7556 117.35L19.6909 119.98C20.0327 120.845 20.4643 121.674 20.842 122.521C21.7054 124.16 22.6586 125.781 23.8097 127.24C24.3493 128.015 24.9428 128.718 25.5903 129.402C26.2019 130.105 26.8314 130.789 27.5328 131.402C28.8638 132.699 30.3746 133.816 31.9034 134.879C32.6948 135.365 33.4862 135.869 34.3135 136.302L36.8316 137.509C38.5762 138.193 40.3209 138.824 42.1554 139.22C43.0368 139.49 44.026 139.58 44.9792 139.743L46.4181 139.941L47.7131 139.995L49.0081 140.049H49.3319L49.6196 140.067H49.7995L50.5009 140.013L53.2888 139.833C54.2241 139.761 55.1234 139.508 56.0406 139.346C56.9579 139.166 57.8752 139.004 58.7385 138.662L61.3825 137.779L63.9005 136.59C64.7639 136.23 65.5552 135.743 66.3286 135.221C67.102 134.698 67.9294 134.266 68.6309 133.672C70.0697 132.501 71.5266 131.348 72.7317 129.943C74.0806 128.664 75.0698 127.078 76.203 125.619L73.0734 126.051C74.2245 126.916 75.3037 127.907 76.5447 128.646L78.3613 129.816C78.9908 130.177 79.6383 130.501 80.2678 130.843C81.5268 131.564 82.8758 132.05 84.2067 132.627C85.5557 133.131 86.9226 133.564 88.3075 133.96C89.7284 134.248 91.0594 134.68 92.5522 134.825L94.7465 135.113C95.484 135.203 96.1135 135.203 96.8149 135.239L97.8401 135.293H98.3437L98.5956 135.329H98.9553L101.114 135.257C102.534 135.149 103.991 135.077 105.394 134.807C106.815 134.608 108.218 134.266 109.621 133.942C111.006 133.528 112.391 133.131 113.722 132.591C115.071 132.086 116.384 131.474 117.679 130.807C118.974 130.159 120.197 129.384 121.42 128.591C122.607 127.745 123.776 126.898 124.873 125.925C125.449 125.475 125.952 124.953 126.474 124.448C127.013 123.944 127.517 123.421 127.985 122.863C128.974 121.8 129.873 120.611 130.719 119.422C131.564 118.215 132.283 116.936 132.967 115.621L130.179 116.9L131.924 117.224L132.787 117.368L133.524 117.404L135.143 117.494L136.798 117.386C137.895 117.26 139.01 117.116 140.071 116.792C141.15 116.54 142.194 116.125 143.201 115.675L144.694 114.936L146.097 114.054C146.996 113.423 147.895 112.757 148.669 111.982C149.082 111.622 149.46 111.225 149.82 110.793C150.179 110.379 150.557 109.982 150.863 109.514C151.546 108.649 152.104 107.694 152.644 106.74C153.129 105.749 153.579 104.758 153.921 103.695C154.118 103.191 154.226 102.65 154.37 102.11C154.514 101.587 154.622 101.047 154.694 100.452C154.748 99.912 154.892 99.2455 154.874 98.7951L154.928 97.2098C154.856 96.1109 154.82 95.03 154.586 93.9491C154.442 92.8682 154.082 91.8234 153.759 90.7965L153.147 89.2833C152.913 88.7969 152.644 88.3105 152.392 87.8421C152.158 87.3557 151.834 86.9234 151.528 86.455C151.241 86.0046 150.917 85.5542 150.557 85.1399C149.892 84.2752 149.118 83.5186 148.345 82.78L148.723 84.9597C149.298 83.8068 150.018 82.6899 150.431 81.4649C150.881 80.2399 151.367 79.0329 151.618 77.6638C151.762 76.9972 151.924 76.3127 152.032 75.6641L152.194 73.8627L152.284 72.9619V72.7457L152.302 72.4755V72.3494V71.863L152.248 69.8814C152.068 68.5663 151.996 67.2332 151.636 65.9542C151.367 64.6571 150.917 63.3961 150.467 62.1531C149.928 60.9461 149.424 59.7031 148.705 58.5862C148.057 57.4152 147.248 56.3703 146.456 55.2895C145.575 54.2986 144.73 53.2718 143.704 52.4071C142.751 51.4703 141.654 50.7137 140.575 49.9211C139.442 49.2365 138.309 48.5159 137.086 47.9935C135.899 47.381 134.622 46.9846 133.363 46.5703C132.068 46.2821 130.808 45.9218 129.406 45.7957C127.967 45.5615 126.852 45.6155 125.629 45.5795C124.1 45.6696 122.949 45.8677 121.618 46.0119C120.341 46.3001 119.082 46.6784 117.841 47.0387L120.323 48.624L119.873 45.3453C119.693 44.2464 119.369 43.2016 119.136 42.1027C118.92 41.0038 118.47 39.9949 118.128 38.9321C117.805 37.8692 117.337 36.8604 116.869 35.8335L116.168 34.3203L115.341 32.8611C114.783 31.8883 114.243 30.9155 113.56 30.0148C112.319 28.1412 110.88 26.4298 109.351 24.7725C108.56 23.9798 107.786 23.1511 106.941 22.4125L104.333 20.2688L101.545 18.3592C100.592 17.7647 99.5848 17.2423 98.6135 16.6838C96.5991 15.657 94.5307 14.7382 92.3724 14.0717C91.3112 13.6754 90.2141 13.4052 89.1169 13.1529L87.4622 12.7566C86.9046 12.6485 86.3111 12.5765 85.7355 12.4864C84.6024 12.3243 83.3434 12.1081 82.3542 12.1081L80.7894 12.036L79.998 12H79.4584H79.0268C76.7785 12.054 74.5123 12.2162 72.282 12.6305C71.1669 12.8467 70.0517 13.0449 68.9726 13.3691L67.3359 13.8195L65.7351 14.3779C63.5948 15.0985 61.5444 16.0713 59.5659 17.1522C58.5767 17.6927 57.6414 18.3232 56.6881 18.9177C55.7708 19.5662 54.8536 20.2147 53.9723 20.9173C52.2276 22.3405 50.5549 23.8357 49.0621 25.5111C48.3067 26.3397 47.5872 27.2045 46.9397 28.1052C46.2383 28.9699 45.6267 29.9247 45.0152 30.8614C44.3677 31.7802 43.8821 32.789 43.3245 33.7438C42.8029 34.7346 42.3713 35.7615 41.9036 36.7703L44.1159 35.4372L40.4648 35.221H40.2309H40.105H39.8532L39.3676 35.257L38.3964 35.3111L36.4539 35.4012C35.1589 35.5993 33.8819 35.7615 32.5869 35.9957C31.3279 36.3199 30.0509 36.6082 28.8098 37.0045C27.5868 37.4729 26.3278 37.8512 25.1587 38.4096C24.0076 39.0041 22.7665 39.4725 21.6874 40.1931C20.5902 40.8777 19.4211 41.5082 18.4139 42.3368C17.3707 43.1115 16.3096 43.8861 15.3743 44.8049L13.9354 46.1199L12.6224 47.5611C11.7051 48.4979 10.9317 49.5427 10.1583 50.6056C9.33097 51.6144 8.70146 52.7674 8.01799 53.8843C7.29855 54.9652 6.83092 56.2082 6.23738 57.3611C5.66183 58.5321 5.30211 59.7931 4.83447 61.0181C4.42079 62.2612 4.151 63.5402 3.82726 64.8012C3.57545 66.0983 3.41357 67.4494 3.19774 68.7825L2.99991 72.4575V72.5836L3.03587 72.6377Z" fill="#F2F0FF"/>
<g clip-path="url(#clip1_1813_5007)">
<path d="M93.7571 72.5207C94.7878 72.4627 95.8144 72.6762 96.7253 73.1394C97.6561 73.6125 98.7367 73.5649 99.616 73.0117C100.482 72.4667 101 71.5207 101 70.4815V57.183C101 56.545 100.491 56.0277 99.8643 56.0277H86.7951C86.4772 56.0277 86.3108 55.8319 86.2399 55.7152C86.1789 55.6151 86.0547 55.3468 86.2142 55.0218C86.8458 53.7359 87.1376 52.2898 87.0582 50.8402C86.8269 46.6127 83.3871 43.1718 79.227 43.0067C76.9796 42.9167 74.8545 43.7395 73.2385 45.3211C71.6217 46.9032 70.7312 49.0314 70.7312 51.3135C70.7312 52.6215 71.0218 53.8738 71.5952 55.0359C71.7502 55.3499 71.6282 55.6123 71.5687 55.7106C71.4969 55.829 71.3286 56.0277 71.0082 56.0277H57.9383C57.3113 56.0277 56.8029 56.545 56.8029 57.183V70.4814C56.8029 70.8049 56.6105 70.9741 56.4957 71.0463C56.3974 71.1084 56.1338 71.2347 55.8144 71.0724C54.5507 70.4301 53.1304 70.1327 51.705 70.2135C47.5504 70.4489 44.1688 73.949 44.0065 78.1819C43.9188 80.4669 44.7264 82.6311 46.2808 84.2757C47.8358 85.9209 49.9273 86.8271 52.1701 86.8271C53.4556 86.8271 54.6863 86.5314 55.8283 85.948C56.1374 85.7903 56.3949 85.9145 56.4914 85.9749C56.6078 86.048 56.803 86.2193 56.803 86.5453V99.8447C56.803 100.483 57.3114 101 57.9384 101H71.0075C72.0289 101 72.9584 100.474 73.4941 99.592C74.0378 98.6973 74.0847 97.5977 73.6196 96.6505C73.1646 95.7236 72.9542 94.6791 73.0116 93.63C73.1785 90.5794 75.6615 88.0963 78.664 87.9771C80.2853 87.913 81.8231 88.506 82.9899 89.648C84.1574 90.7905 84.8004 92.3272 84.8004 93.975C84.8004 94.9198 84.591 95.8234 84.1779 96.6607C83.7143 97.6 83.7604 98.6933 84.3011 99.5853C84.8381 100.471 85.7702 101 86.7944 101H99.8643C100.491 101 101 100.482 101 99.8444V86.5453C101 85.5032 100.48 84.5547 99.6095 84.0083C98.7329 83.4581 97.6587 83.4114 96.7353 83.8829C95.9124 84.3032 95.0243 84.5164 94.0959 84.5164C92.4765 84.5164 90.9663 83.8621 89.8435 82.674C88.7212 81.4866 88.138 79.9233 88.2014 78.272C88.3187 75.2169 90.759 72.6905 93.7571 72.5207ZM88.2067 84.2758C89.7617 85.9209 91.8532 86.8271 94.096 86.8271C95.3814 86.8271 96.6121 86.5314 97.7544 85.948C98.063 85.7901 98.3208 85.9144 98.4173 85.9749C98.5337 86.048 98.7289 86.2193 98.7289 86.5453V98.6891H86.7945C86.4739 98.6891 86.3058 98.4905 86.2339 98.372C86.1744 98.2737 86.0527 98.0114 86.2076 97.6974C86.7807 96.5352 87.0714 95.2828 87.0714 93.9749C87.0714 91.6928 86.181 89.5646 84.5641 87.9825C83.0274 86.4784 81.029 85.6616 78.9056 85.6616C78.796 85.6616 78.6858 85.6637 78.5755 85.6679C74.4155 85.833 70.9756 89.2738 70.7442 93.5013C70.6649 94.951 70.9568 96.397 71.5883 97.6828C71.7478 98.0081 71.6235 98.2762 71.5626 98.3764C71.4916 98.4931 71.3253 98.6888 71.0074 98.6888H59.0737V86.5451C59.0737 85.5029 58.554 84.5545 57.6835 84.0081C56.8071 83.458 55.7326 83.4111 54.8094 83.8826C53.9864 84.303 53.0985 84.5161 52.17 84.5161C50.5506 84.5161 49.0404 83.8618 47.9174 82.6738C46.7952 81.4863 46.2121 79.9231 46.2755 78.2718C46.3928 75.2166 48.8331 72.6903 51.8312 72.5205C52.8616 72.4625 53.8885 72.676 54.7994 73.1392C55.73 73.6122 56.8106 73.5647 57.69 73.0116C58.5566 72.4665 59.0739 71.5206 59.0739 70.4812V58.3382H71.0083C72.0325 58.3382 72.9646 57.8094 73.5015 56.9236C74.0422 56.0319 74.0883 54.9385 73.6248 53.9991C73.2117 53.1616 73.0022 52.2581 73.0022 51.3134C73.0022 49.6656 73.6453 48.129 74.8127 46.9864C75.9796 45.8446 77.5158 45.2505 79.1387 45.3155C82.1413 45.4346 84.624 47.9178 84.791 50.9684C84.8484 52.0176 84.6382 53.0619 84.183 53.989C83.718 54.9361 83.7649 56.0356 84.3085 56.9303C84.8441 57.812 85.7738 58.3384 86.7951 58.3384H98.7289V70.4814C98.7289 70.8049 98.5365 70.9742 98.4218 71.0463C98.3233 71.1084 98.0597 71.2347 97.7403 71.0724C96.4767 70.4301 95.0566 70.1327 93.631 70.2135C89.4764 70.4489 86.0948 73.949 85.9324 78.182C85.8447 80.467 86.6525 82.6312 88.2067 84.2758Z" fill="#2E0081"/>
<path d="M66.661 60.3223H62.1589C61.5319 60.3223 61.0234 60.8397 61.0234 61.4777C61.0234 62.1157 61.5319 62.6331 62.1589 62.6331H66.661C67.288 62.6331 67.7964 62.1157 67.7964 61.4777C67.7964 60.8397 67.288 60.3223 66.661 60.3223Z" fill="#2E0081"/>
<path d="M72.1477 60.3223H70.8815C70.2545 60.3223 69.7461 60.8397 69.7461 61.4777C69.7461 62.1157 70.2545 62.6331 70.8815 62.6331H72.1477C72.7747 62.6331 73.2831 62.1157 73.2831 61.4777C73.2831 60.8397 72.7747 60.3223 72.1477 60.3223Z" fill="#2E0081"/>
</g>
</g>
<defs>
<clipPath id="clip0_1813_5007">
<rect width="162" height="149" fill="white" transform="matrix(-1 0 0 1 162 9.5)"/>
</clipPath>
<clipPath id="clip1_1813_5007">
<rect width="57" height="58" fill="white" transform="translate(44 43)"/>
</clipPath>
</defs>
</svg>
