<svg width="162" height="168" viewBox="0 0 162 168" fill="none" xmlns="http://www.w3.org/2000/svg">
<g clip-path="url(#clip0_1330_6606)">
<path d="M157.323 70.1737L157.125 66.5167C156.927 65.4358 156.801 64.3549 156.585 63.256C156.28 62.1571 156.064 61.0402 155.686 59.9593C155.255 58.8964 154.967 57.7975 154.445 56.7707C153.924 55.7619 153.528 54.681 152.88 53.7262C152.287 52.7534 151.729 51.7446 151.01 50.8618C150.344 49.9431 149.661 49.0243 148.852 48.2137L147.7 46.9526L146.441 45.7997C145.632 44.989 144.715 44.3225 143.779 43.6559C142.898 42.9354 141.873 42.3949 140.92 41.8004C139.966 41.1519 138.887 40.7736 137.88 40.2512C136.855 39.7467 135.758 39.4405 134.697 39.0262C133.617 38.6659 132.502 38.4317 131.405 38.1254L128.042 37.585L124.75 37.4048L121.099 37.585L119.606 37.657L118.887 36.2519C117.916 34.5225 116.89 32.8471 115.721 31.2798C115.128 30.5052 114.552 29.7125 113.887 28.9919C113.257 28.2353 112.592 27.5328 111.89 26.8662C110.541 25.4611 109.03 24.218 107.484 23.0471C106.692 22.4706 105.883 21.9662 105.074 21.4257C104.228 20.9574 103.401 20.4349 102.538 20.0206C100.811 19.1739 99.0482 18.3813 97.2137 17.7868L95.8467 17.3364L94.4438 16.9941C93.5086 16.7239 92.5733 16.5798 91.62 16.4176C89.7315 16.0754 87.807 15.9313 85.8825 15.8952H85.5228H85.4868C85.4508 15.8952 85.7566 15.8952 85.6127 15.8952H85.5947H85.5048H85.3069L84.5156 15.9313L82.9508 16.0033C81.8356 16.0033 81.0263 16.2195 80.091 16.3096C79.6413 16.3816 79.1737 16.4176 78.7241 16.4897L77.3212 16.814C76.3859 17.0121 75.4326 17.2283 74.5333 17.5526C72.6808 18.093 70.9181 18.8677 69.1555 19.6783C68.3102 20.1287 67.4288 20.561 66.6015 21.0474L64.1554 22.6147L61.8532 24.3802C61.0978 24.9747 60.4143 25.6772 59.6769 26.3077C58.292 27.6589 56.943 29.1 55.7919 30.6673C55.1624 31.4239 54.6408 32.2526 54.1192 33.0633L53.3278 34.3063L52.6264 35.6034C52.1587 36.4681 51.6551 37.3148 51.2954 38.2335C50.9357 39.1523 50.45 40.017 50.1803 40.9718C49.8925 41.9085 49.5148 42.8453 49.281 43.8001L48.5615 46.7004L48.0399 48.8262L46.0794 48.2857L42.806 47.7813L39.6225 47.7273C38.4354 47.8354 37.1404 47.8714 36.2231 48.1236C35.2339 48.2677 34.1727 48.628 33.1475 48.9163C32.1583 49.3306 31.1151 49.6368 30.1798 50.1773C29.1906 50.6096 28.3093 51.2402 27.392 51.7986C26.5466 52.4471 25.6473 53.0597 24.8739 53.8163C24.0466 54.5188 23.3631 55.3475 22.6437 56.1402C21.9962 57.0049 21.3127 57.8336 20.7911 58.7703C20.1796 59.6711 19.7659 60.6619 19.2803 61.6347C18.9026 62.6435 18.4709 63.6343 18.2371 64.6972C17.8954 65.724 17.7695 66.8049 17.5536 67.8858L17.4277 69.5071L17.3918 69.9215V70.0295V70.0836C17.3918 70.0836 17.3918 70.2457 17.3918 69.9575V69.9935V70.2277L17.4277 71.1284L17.4817 72.9299L17.7155 74.4792C17.7874 75.506 18.1292 76.5689 18.399 77.6498C18.6688 78.7307 19.1724 79.7215 19.5321 80.7843L19.9997 82.2075L19.1544 82.9641C18.5429 83.6127 17.9134 84.2252 17.4097 84.9458C17.122 85.288 16.8881 85.6483 16.6543 86.0266C16.4205 86.405 16.1687 86.7652 15.9888 87.1616C15.809 87.5579 15.5932 87.9362 15.4133 88.3505L14.9636 89.5755C14.7298 90.4222 14.46 91.2509 14.3701 92.1156C14.1902 92.9803 14.2082 93.845 14.1723 94.7278L14.2622 96.0969C14.2622 96.6373 14.3881 96.9436 14.4421 97.3579C14.496 97.7542 14.5859 98.1686 14.7118 98.5829C14.8377 98.9973 14.9277 99.4296 15.0895 99.8259C15.3593 100.655 15.755 101.429 16.1507 102.186C16.6004 102.924 17.05 103.663 17.6076 104.33C17.8594 104.69 18.1652 104.978 18.4529 105.302C18.7407 105.627 19.0465 105.933 19.3702 106.203C19.9997 106.798 20.7012 107.284 21.4206 107.77L22.5358 108.419L23.7048 108.959C24.4962 109.266 25.3056 109.572 26.133 109.752C26.9603 109.986 27.8057 110.058 28.651 110.148L29.928 110.202L31.241 110.094L31.9784 110.04L32.554 109.914L33.7051 109.662L35.5396 109.266L36.4929 110.941C37.0685 112.058 37.662 113.157 38.3814 114.184C39.0829 115.211 39.8383 116.219 40.6836 117.156C41.0793 117.643 41.511 118.093 41.9786 118.525C42.4283 118.958 42.86 119.426 43.3636 119.822C44.2988 120.669 45.324 121.426 46.3492 122.164C47.4104 122.867 48.4716 123.551 49.6047 124.128C50.7198 124.722 51.8709 125.281 53.076 125.731C54.2451 126.218 55.4861 126.578 56.6912 126.974C57.9322 127.28 59.1733 127.605 60.4323 127.785C61.6913 128.037 62.9683 128.109 64.2453 128.235L66.1698 128.307C66.1698 128.307 66.4216 128.307 66.3137 128.307H66.5655L67.0691 128.271L68.0943 128.235C68.7598 128.199 69.4793 128.217 70.0908 128.127L71.9433 127.893C73.1664 127.803 74.4434 127.389 75.6844 127.172C76.9075 126.83 78.1485 126.47 79.3536 126.019C80.5227 125.515 81.7457 125.101 82.8608 124.47C83.4184 124.182 84.0119 123.894 84.5695 123.587L86.1882 122.561C87.3034 121.912 88.2387 121.047 89.2818 120.309L90.9366 118.994L92.4114 120.741C93.4366 121.966 94.3179 123.317 95.523 124.38C96.6022 125.569 97.8971 126.524 99.1562 127.497C99.7857 127.983 100.505 128.343 101.171 128.776C101.836 129.208 102.52 129.622 103.257 129.911L105.433 130.901L107.7 131.604C108.437 131.892 109.228 132 110.02 132.144C110.811 132.271 111.567 132.487 112.358 132.523L114.732 132.667L115.326 132.703H115.469C115.469 132.703 115.613 132.703 115.362 132.703H115.38H115.416H115.487L115.811 132.685L117.106 132.613L118.401 132.541L119.516 132.361C120.272 132.234 121.009 132.18 121.783 131.928C123.329 131.586 124.822 131.046 126.297 130.469L128.437 129.424C129.139 129.046 129.786 128.595 130.47 128.199C131.783 127.316 133.06 126.38 134.211 125.281C134.822 124.776 135.362 124.182 135.884 123.605C136.441 123.029 136.963 122.434 137.412 121.786C138.402 120.543 139.229 119.174 139.984 117.787C140.326 117.066 140.722 116.381 141.028 115.643L141.873 113.409C142.323 111.878 142.736 110.347 142.934 108.761C143.096 107.987 143.114 107.176 143.186 106.383L143.276 105.176V105.104C143.276 105.104 143.276 105.32 143.276 105.194V105.14V104.978V104.654V104.005C143.204 103.177 143.258 102.222 143.114 101.483L142.79 99.1954L142.574 97.9344L143.618 97.0697L146.657 94.5656C147.557 93.6109 148.492 92.6921 149.373 91.7193L150.578 90.152C150.974 89.6296 151.406 89.1252 151.765 88.5847L152.772 86.8913C153.096 86.3149 153.474 85.7924 153.762 85.198L154.553 83.4145C154.805 82.82 155.129 82.2435 155.326 81.613L155.902 79.7395C156.082 79.109 156.316 78.4965 156.46 77.866L156.801 75.9384C156.909 75.2899 157.053 74.6593 157.125 74.0108L157.341 70.1016V70.2277L157.323 70.1737ZM161.999 70.0476L161.694 74.5152C161.604 75.2538 161.424 75.9744 161.298 76.713L160.866 78.9108C160.704 79.6314 160.435 80.334 160.219 81.0546L159.517 83.1803C159.283 83.8829 158.906 84.5314 158.618 85.216L157.683 87.2336C157.359 87.9002 156.927 88.5127 156.55 89.1432L155.38 91.0347C154.967 91.6472 154.463 92.2057 154.013 92.8002L152.629 94.5476C151.603 95.6105 150.524 96.6373 149.463 97.6822L145.956 100.402L146.783 98.2767L147.287 101.087C147.485 102.06 147.449 102.834 147.539 103.717L147.592 104.366V104.69L147.628 104.852V105.05V105.14L147.592 106.527C147.557 107.446 147.574 108.383 147.395 109.302C147.197 111.157 146.765 112.959 146.28 114.76L145.344 117.39C145.003 118.255 144.571 119.084 144.193 119.93C143.33 121.57 142.377 123.191 141.225 124.65C140.686 125.425 140.092 126.127 139.445 126.812C138.833 127.515 138.204 128.199 137.502 128.812C136.171 130.109 134.661 131.226 133.132 132.289C132.34 132.775 131.549 133.279 130.722 133.712L128.204 134.919C126.459 135.603 124.714 136.234 122.88 136.63C121.998 136.9 121.009 136.99 120.056 137.153L118.617 137.351L117.322 137.405L116.027 137.459H115.703L115.416 137.477H115.236L114.534 137.423L111.746 137.243C110.811 137.171 109.912 136.918 108.995 136.756C108.077 136.576 107.16 136.414 106.297 136.072L103.653 135.189L101.135 134C100.271 133.64 99.4799 133.153 98.7065 132.631C97.9331 132.108 97.1058 131.676 96.4043 131.082C94.9654 129.911 93.5086 128.758 92.3035 127.352C90.9545 126.073 89.9653 124.488 88.8322 123.029L91.9618 123.461C90.8107 124.326 89.7315 125.317 88.4905 126.055L86.6739 127.226C86.0444 127.587 85.3969 127.911 84.7674 128.253C83.5083 128.974 82.1594 129.46 80.8284 130.037C79.4795 130.541 78.1125 130.973 76.7276 131.37C75.3067 131.658 73.9757 132.09 72.4829 132.234L70.2886 132.523C69.5512 132.613 68.9217 132.613 68.2202 132.649L67.195 132.703H66.6914L66.4396 132.739H66.0799L63.9216 132.667C62.5007 132.559 61.0438 132.487 59.6409 132.216C58.22 132.018 56.8171 131.676 55.4142 131.352C54.0293 130.937 52.6443 130.541 51.3134 130.001C49.9644 129.496 48.6514 128.884 47.3564 128.217C46.0615 127.569 44.8384 126.794 43.6154 126.001C42.4283 125.155 41.2592 124.308 40.162 123.335C39.5865 122.885 39.0829 122.362 38.5613 121.858C38.0217 121.354 37.5181 120.831 37.0505 120.273C36.0612 119.21 35.1619 118.021 34.3166 116.832C33.4713 115.625 32.7518 114.346 32.0683 113.031L34.8562 114.31L33.1115 114.634L32.2482 114.778L31.5108 114.814L29.892 114.904L28.2373 114.796C27.1402 114.67 26.025 114.526 24.9639 114.202C23.8847 113.95 22.8415 113.535 21.8343 113.085L20.3415 112.346L18.9386 111.463C18.0393 110.833 17.14 110.166 16.3666 109.392C15.9529 109.031 15.5752 108.635 15.2154 108.203C14.8557 107.788 14.478 107.392 14.1723 106.924C13.4888 106.059 12.9312 105.104 12.3916 104.149C11.906 103.159 11.4564 102.168 11.1146 101.105C10.9168 100.601 10.8089 100.06 10.665 99.5197C10.5211 98.9973 10.4132 98.4568 10.3412 97.8623C10.2873 97.3219 10.1434 96.6553 10.1614 96.205L10.1074 94.6197C10.1794 93.5208 10.2153 92.4399 10.4492 91.359C10.593 90.2781 10.9528 89.2333 11.2765 88.2064L11.888 86.6932C12.1219 86.2068 12.3916 85.7204 12.6435 85.252C12.8773 84.7656 13.201 84.3333 13.5068 83.8649C13.7946 83.4145 14.1183 82.9641 14.478 82.5498C15.1435 81.6851 15.9169 80.9285 16.6903 80.1899L16.3126 82.3696C15.737 81.2167 15.0176 80.0998 14.6039 78.8748C14.1543 77.6498 13.6687 76.4428 13.4168 75.0737C13.273 74.4071 13.1111 73.7226 13.0032 73.074L12.8413 71.2726L12.7514 70.3718V70.1556L12.7334 69.8854V69.7593V69.2729L12.7873 67.2913C12.9672 65.9762 13.0391 64.6431 13.3989 63.3641C13.6687 62.067 14.1183 60.806 14.568 59.563C15.1075 58.356 15.6111 57.113 16.3306 55.9961C16.9781 54.8251 17.7874 53.7802 18.5788 52.6994C19.4601 51.7085 20.3055 50.6817 21.3307 49.817C22.284 48.8802 23.3811 48.1236 24.4603 47.331C25.5934 46.6464 26.7265 45.9258 27.9495 45.4034C29.1366 44.7909 30.4136 44.3946 31.6727 43.9802C32.9676 43.692 34.2267 43.3317 35.6296 43.2056C37.0685 42.9714 38.1836 43.0254 39.4066 42.9894C40.9354 43.0795 42.0865 43.2776 43.4175 43.4218C44.6945 43.71 45.9535 44.0883 47.1946 44.4486L44.7125 46.0339L45.1622 42.7552C45.342 41.6563 45.6658 40.6115 45.8996 39.5126C46.1154 38.4137 46.5651 37.4048 46.9068 36.342C47.2305 35.2791 47.6982 34.2703 48.1658 33.2434L48.8673 31.7302L49.6946 30.271C50.2522 29.2982 50.7918 28.3254 51.4753 27.4247C52.7163 25.5511 54.1552 23.8397 55.684 22.1824C56.4754 21.3897 57.2488 20.561 58.0941 19.8224L60.7021 17.6787L63.4899 15.7691C64.4432 15.1746 65.4504 14.6522 66.4216 14.0937C68.4361 13.0669 70.5045 12.1482 72.6628 11.4816C73.7239 11.0853 74.8211 10.8151 75.9182 10.5629L77.573 10.1665C78.1305 10.0584 78.7241 9.98638 79.2996 9.89631C80.4327 9.73418 81.6918 9.518 82.681 9.518L84.2458 9.44594L85.0371 9.40991H85.5767H86.0084C88.2566 9.46396 90.5229 9.62609 92.7531 10.0404C93.8683 10.2566 94.9834 10.4548 96.0626 10.779L97.6993 11.2294L99.3001 11.7879C101.44 12.5084 103.491 13.4812 105.469 14.5621C106.458 15.1026 107.394 15.7331 108.347 16.3276C109.264 16.9761 110.182 17.6246 111.063 18.3272C112.808 19.7504 114.48 21.2456 115.973 22.921C116.729 23.7497 117.448 24.6144 118.095 25.5151C118.797 26.3798 119.408 27.3346 120.02 28.2714C120.667 29.1901 121.153 30.1989 121.711 31.1537C122.232 32.1445 122.664 33.1714 123.132 34.1802L120.919 32.8471L124.57 32.6309H124.804H124.93H125.182L125.668 32.667L126.639 32.721L128.581 32.8111C129.876 33.0092 131.153 33.1714 132.448 33.4056C133.707 33.7298 134.984 34.0181 136.225 34.4144C137.448 34.8828 138.707 35.2611 139.876 35.8195C141.028 36.414 142.269 36.8824 143.348 37.603C144.445 38.2876 145.614 38.9181 146.621 39.7467C147.664 40.5214 148.726 41.296 149.661 42.2148L151.1 43.5298L152.413 44.971C153.33 45.9078 154.103 46.9526 154.877 48.0155C155.704 49.0243 156.334 50.1773 157.017 51.2942C157.737 52.3751 158.204 53.6181 158.798 54.771C159.373 55.942 159.733 57.203 160.201 58.428C160.614 59.6711 160.884 60.9501 161.208 62.2111C161.46 63.5082 161.622 64.8593 161.837 66.1924L162.035 69.8674V69.9935L161.999 70.0476Z" fill="#F2F0FF"/>
<path d="M34.8922 131.028C34.8922 131.028 34.8921 131.298 34.8562 131.82C34.8382 132.325 34.6763 133.423 34.3346 134.432C33.9569 135.495 33.3454 136.738 32.3561 137.927C31.3669 139.116 30.0359 140.269 28.3812 141.152C26.7265 142.035 24.784 142.665 22.6796 142.881C22.1221 142.899 21.6724 142.953 21.007 142.935C20.5033 142.899 20.1077 142.935 19.4781 142.845C18.2731 142.737 17.1939 142.485 16.0788 142.107C13.8845 141.332 11.7262 140.035 10.0715 138.089C8.38077 136.162 7.35557 133.676 7.39154 130.811C7.40953 129.875 7.71529 128.199 8.2189 127.1C8.70452 125.893 9.45993 124.848 10.2693 123.93C11.942 122.074 14.0823 120.903 16.2227 120.201C18.363 119.516 20.6472 119.336 22.5717 119.516C24.7301 119.75 26.5287 120.327 28.1654 121.137C29.7661 121.966 31.1151 122.993 32.1223 124.128C33.1295 125.245 33.795 126.434 34.2087 127.479C34.5864 128.523 34.7663 129.406 34.8202 130.001C34.8742 130.595 34.8922 130.919 34.8922 130.919V131.009V131.028ZM31.8525 130.937C31.8525 130.937 31.8525 130.721 31.8345 130.289C31.8165 129.875 31.7266 129.262 31.4928 128.487C31.223 127.731 30.7913 126.848 30.0539 125.947C29.3165 125.065 28.2913 124.164 26.9783 123.515C25.7013 122.849 24.0466 122.38 22.4638 122.272C20.6472 122.146 18.9206 122.38 17.1759 122.975C15.4673 123.605 13.8485 124.65 12.6974 126.055C12.1219 126.758 11.6362 127.533 11.3485 128.361C11.0427 129.298 10.9348 129.784 10.9168 131.028C11.0067 132.541 11.7082 134.36 12.8953 135.621C14.0644 136.954 15.6651 137.873 17.3198 138.432C18.1472 138.684 19.0465 138.918 19.7839 138.99C20.1256 139.062 20.7192 139.062 21.1688 139.08C21.4746 139.08 21.9602 139.062 22.3379 139.044C23.9567 138.918 25.4675 138.522 26.7265 137.909C29.3165 136.702 30.7374 134.739 31.3129 133.315C31.5827 132.523 31.6906 132.126 31.7626 131.622C31.7986 131.118 31.8345 130.847 31.8345 130.847V130.937H31.8525Z" fill="#F2F0FF"/>
<path d="M14.5497 152.249C14.5497 152.249 14.5497 152.375 14.5318 152.609C14.5138 152.843 14.5497 153.132 14.2979 153.852C14.1001 154.573 13.7224 155.149 13.2188 155.798C12.6972 156.41 12.0137 157.023 11.1684 157.491C10.323 157.96 9.33381 158.32 8.25465 158.428L7.84097 158.482H7.62513L7.51722 158.518H7.2834L6.61792 158.482C6.2582 158.5 5.44883 158.32 4.8373 158.158C3.65023 157.743 2.48114 157.167 1.56385 156.104C0.628577 155.077 -0.0189198 153.618 0.0170522 152.087V151.853H0.0350383V151.781V151.69L0.0889963 151.51L0.16094 151.132C0.16094 151.042 0.214898 150.844 0.304828 150.628L0.538647 150.033C0.700521 149.601 0.898367 149.312 1.1142 149.042C1.33003 148.772 1.50989 148.466 1.77968 148.268C2.71495 147.277 3.90203 146.808 4.99918 146.466C6.1323 146.214 7.22944 146.106 8.25465 146.25C8.47048 146.286 8.66832 146.286 8.90214 146.34C9.17193 146.412 9.42374 146.484 9.67554 146.538C10.1971 146.664 10.6108 146.899 11.0065 147.079C11.8159 147.493 12.4814 148.033 13.0209 148.574C13.5245 149.15 13.9562 149.709 14.1541 150.267C14.4238 150.79 14.4778 151.276 14.5318 151.582C14.5857 151.907 14.6037 152.069 14.6037 152.069V152.231L14.5497 152.249ZM11.8518 152.069C11.8518 152.069 11.8518 151.997 11.8339 151.835C11.8339 151.69 11.8339 151.456 11.7259 151.186C11.6 150.628 11.0425 149.763 9.89137 149.294C9.6036 149.204 9.31582 149.042 9.02804 149.024L8.59638 148.934C8.43451 148.916 8.1827 148.916 7.98486 148.898C7.2834 148.844 6.54597 149.006 5.86251 149.258C5.21501 149.565 4.54953 149.943 4.18981 150.501C4.0639 150.61 4.02793 150.772 3.938 150.898C3.84807 151.042 3.77613 151.168 3.79411 151.222C3.79411 151.258 3.77613 151.294 3.75814 151.33C3.74016 151.33 3.70418 151.384 3.70418 151.546V151.925L3.66821 152.123V152.213V152.267V152.303C3.66821 152.213 3.66821 152.537 3.66821 152.087C3.74016 152.591 3.99196 153.042 4.38765 153.492C4.76536 153.942 5.43084 154.231 5.98841 154.465C6.29417 154.501 6.36611 154.663 6.92368 154.681L7.58916 154.771H7.62513H7.64312C7.64312 154.771 7.35535 154.771 7.49923 154.771H7.55319H7.67909H7.91291C8.56041 154.807 9.15395 154.645 9.67554 154.465C10.1971 154.285 10.6108 154.014 10.9346 153.744C11.2223 153.474 11.4741 153.132 11.5281 153.006C11.672 152.933 11.7259 152.501 11.7619 152.285C11.7979 152.051 11.8339 151.925 11.8339 151.925V152.087L11.8518 152.069Z" fill="#F2F0FF"/>
<path d="M85.5 50.1875C80.4295 50.1933 75.5684 52.2101 71.983 55.7955C68.3976 59.3809 66.3808 64.242 66.375 69.3125C66.375 74.0938 68.8772 80.2815 73.0707 85.8477C77.2902 91.4557 81.936 94.8125 85.5 94.8125C89.064 94.8125 93.7098 91.4636 97.9293 85.8477C102.123 80.2695 104.625 74.0938 104.625 69.3125C104.619 64.242 102.602 59.3809 99.017 55.7955C95.4316 52.2101 90.5705 50.1933 85.5 50.1875ZM72.75 70.1094C72.75 69.4753 73.0019 68.8673 73.4502 68.4189C73.8985 67.9706 74.5066 67.7188 75.1406 67.7188C77.0427 67.7188 78.8669 68.4744 80.2119 69.8193C81.5569 71.1643 82.3125 72.9885 82.3125 74.8906C82.3125 75.5247 82.0606 76.1327 81.6123 76.5811C81.164 77.0294 80.5559 77.2812 79.9219 77.2812C78.0198 77.2812 76.1956 76.5256 74.8506 75.1807C73.5056 73.8357 72.75 72.0115 72.75 70.1094ZM88.6875 86.8438H82.3125C81.8898 86.8438 81.4844 86.6758 81.1855 86.377C80.8867 86.0781 80.7188 85.6727 80.7188 85.25C80.7188 84.8273 80.8867 84.4219 81.1855 84.123C81.4844 83.8242 81.8898 83.6562 82.3125 83.6562H88.6875C89.1102 83.6562 89.5156 83.8242 89.8145 84.123C90.1133 84.4219 90.2812 84.8273 90.2812 85.25C90.2812 85.6727 90.1133 86.0781 89.8145 86.377C89.5156 86.6758 89.1102 86.8438 88.6875 86.8438ZM91.0781 77.2812C90.4441 77.2812 89.836 77.0294 89.3877 76.5811C88.9394 76.1327 88.6875 75.5247 88.6875 74.8906C88.6875 72.9885 89.4431 71.1643 90.7881 69.8193C92.1331 68.4744 93.9573 67.7188 95.8594 67.7188C96.4934 67.7188 97.1015 67.9706 97.5498 68.4189C97.9981 68.8673 98.25 69.4753 98.25 70.1094C98.25 71.0512 98.0645 71.9838 97.7041 72.8539C97.3437 73.7241 96.8154 74.5147 96.1494 75.1807C95.4834 75.8466 94.6928 76.3749 93.8227 76.7353C92.9525 77.0957 92.0199 77.2812 91.0781 77.2812Z" fill="#2E0081"/>
</g>
<defs>
<clipPath id="clip0_1330_6606">
<rect width="162" height="149" fill="white" transform="translate(0 9.5)"/>
</clipPath>
</defs>
</svg>
