<svg width="162" height="168" viewBox="0 0 162 168" fill="none" xmlns="http://www.w3.org/2000/svg">
<g clip-path="url(#clip0_1828_5217)">
<path d="M34.8922 135.028C34.8922 135.028 34.8921 135.298 34.8562 135.82C34.8382 136.325 34.6763 137.423 34.3346 138.432C33.9569 139.495 33.3454 140.738 32.3561 141.927C31.3669 143.116 30.0359 144.269 28.3812 145.152C26.7265 146.035 24.784 146.665 22.6796 146.881C22.1221 146.899 21.6724 146.953 21.007 146.935C20.5033 146.899 20.1077 146.935 19.4781 146.845C18.2731 146.737 17.1939 146.485 16.0788 146.107C13.8845 145.332 11.7262 144.035 10.0715 142.089C8.38077 140.162 7.35557 137.676 7.39154 134.811C7.40953 133.875 7.71529 132.199 8.2189 131.1C8.70452 129.893 9.45993 128.848 10.2693 127.93C11.942 126.074 14.0823 124.903 16.2227 124.201C18.363 123.516 20.6472 123.336 22.5717 123.516C24.7301 123.75 26.5287 124.327 28.1654 125.137C29.7661 125.966 31.1151 126.993 32.1223 128.128C33.1295 129.245 33.795 130.434 34.2087 131.479C34.5864 132.523 34.7663 133.406 34.8202 134.001C34.8742 134.595 34.8922 134.919 34.8922 134.919V135.009V135.028ZM31.8525 134.937C31.8525 134.937 31.8525 134.721 31.8345 134.289C31.8165 133.875 31.7266 133.262 31.4928 132.487C31.223 131.731 30.7913 130.848 30.0539 129.947C29.3165 129.065 28.2913 128.164 26.9783 127.515C25.7013 126.849 24.0466 126.38 22.4638 126.272C20.6472 126.146 18.9206 126.38 17.1759 126.975C15.4673 127.605 13.8485 128.65 12.6974 130.055C12.1219 130.758 11.6362 131.533 11.3485 132.361C11.0427 133.298 10.9348 133.784 10.9168 135.028C11.0067 136.541 11.7082 138.36 12.8953 139.621C14.0644 140.954 15.6651 141.873 17.3198 142.432C18.1472 142.684 19.0465 142.918 19.7839 142.99C20.1256 143.062 20.7192 143.062 21.1688 143.08C21.4746 143.08 21.9602 143.062 22.3379 143.044C23.9567 142.918 25.4675 142.522 26.7265 141.909C29.3165 140.702 30.7374 138.739 31.3129 137.315C31.5827 136.523 31.6906 136.126 31.7626 135.622C31.7986 135.118 31.8345 134.847 31.8345 134.847V134.937H31.8525Z" fill="#F2F0FF"/>
<path d="M15.5497 152.249C15.5497 152.249 15.5497 152.375 15.5318 152.609C15.5138 152.843 15.5497 153.132 15.2979 153.852C15.1001 154.573 14.7224 155.149 14.2188 155.798C13.6972 156.41 13.0137 157.023 12.1684 157.491C11.323 157.96 10.3338 158.32 9.25465 158.428L8.84097 158.482H8.62513L8.51722 158.518H8.2834L7.61792 158.482C7.2582 158.5 6.44883 158.32 5.8373 158.158C4.65023 157.743 3.48114 157.167 2.56385 156.104C1.62858 155.077 0.98108 153.618 1.01705 152.087V151.853H1.03504V151.781V151.69L1.089 151.51L1.16094 151.132C1.16094 151.042 1.2149 150.844 1.30483 150.628L1.53865 150.033C1.70052 149.601 1.89837 149.312 2.1142 149.042C2.33003 148.772 2.50989 148.466 2.77968 148.268C3.71495 147.277 4.90203 146.808 5.99918 146.466C7.1323 146.214 8.22944 146.106 9.25465 146.25C9.47048 146.286 9.66832 146.286 9.90214 146.34C10.1719 146.412 10.4237 146.484 10.6755 146.538C11.1971 146.664 11.6108 146.899 12.0065 147.079C12.8159 147.493 13.4814 148.033 14.0209 148.574C14.5245 149.15 14.9562 149.709 15.1541 150.267C15.4238 150.79 15.4778 151.276 15.5318 151.582C15.5857 151.907 15.6037 152.069 15.6037 152.069V152.231L15.5497 152.249ZM12.8518 152.069C12.8518 152.069 12.8518 151.997 12.8339 151.835C12.8339 151.69 12.8339 151.456 12.7259 151.186C12.6 150.628 12.0425 149.763 10.8914 149.294C10.6036 149.204 10.3158 149.042 10.028 149.024L9.59638 148.934C9.43451 148.916 9.1827 148.916 8.98486 148.898C8.2834 148.844 7.54597 149.006 6.86251 149.258C6.21501 149.565 5.54953 149.943 5.18981 150.501C5.0639 150.61 5.02793 150.772 4.938 150.898C4.84807 151.042 4.77613 151.168 4.79411 151.222C4.79411 151.258 4.77613 151.294 4.75814 151.33C4.74016 151.33 4.70418 151.384 4.70418 151.546V151.925L4.66821 152.123V152.213V152.267V152.303C4.66821 152.213 4.66821 152.537 4.66821 152.087C4.74016 152.591 4.99196 153.042 5.38765 153.492C5.76536 153.942 6.43084 154.231 6.98841 154.465C7.29417 154.501 7.36611 154.663 7.92368 154.681L8.58916 154.771H8.62513H8.64312C8.64312 154.771 8.35535 154.771 8.49923 154.771H8.55319H8.67909H8.91291C9.56041 154.807 10.1539 154.645 10.6755 154.465C11.1971 154.285 11.6108 154.014 11.9346 153.744C12.2223 153.474 12.4741 153.132 12.5281 153.006C12.672 152.933 12.7259 152.501 12.7619 152.285C12.7979 152.051 12.8339 151.925 12.8339 151.925V152.087L12.8518 152.069Z" fill="#F2F0FF"/>
<path d="M158.964 72.6377L158.658 77.1053C158.568 77.8439 158.389 78.5645 158.263 79.3031L157.831 81.5009C157.669 82.2215 157.399 82.9241 157.184 83.6447L156.482 85.7704C156.248 86.473 155.871 87.1215 155.583 87.8061L154.647 89.8237C154.324 90.4903 153.892 91.1028 153.514 91.7333L152.345 93.6248C151.932 94.2374 151.428 94.7958 150.978 95.3903L149.593 97.1377C148.568 98.2006 147.489 99.2274 146.428 100.272L142.921 102.993L143.748 100.867L144.252 103.677C144.449 104.65 144.413 105.425 144.503 106.307L144.557 106.956V107.28L144.593 107.442V107.64V107.73L144.557 109.118C144.521 110.036 144.539 110.973 144.359 111.892C144.162 113.747 143.73 115.549 143.244 117.35L142.309 119.98C141.967 120.845 141.536 121.674 141.158 122.521C140.295 124.16 139.341 125.781 138.19 127.24C137.651 128.015 137.057 128.718 136.41 129.402C135.798 130.105 135.169 130.789 134.467 131.402C133.136 132.699 131.625 133.816 130.097 134.879C129.305 135.365 128.514 135.869 127.686 136.302L125.168 137.509C123.424 138.193 121.679 138.824 119.845 139.22C118.963 139.49 117.974 139.58 117.021 139.743L115.582 139.941L114.287 139.995L112.992 140.049H112.668L112.38 140.067H112.201L111.499 140.013L108.711 139.833C107.776 139.761 106.877 139.508 105.959 139.346C105.042 139.166 104.125 139.004 103.261 138.662L100.618 137.779L98.0995 136.59C97.2361 136.23 96.4448 135.743 95.6714 135.221C94.898 134.698 94.0706 134.266 93.3691 133.672C91.9303 132.501 90.4734 131.348 89.2683 129.943C87.9194 128.664 86.9302 127.078 85.797 125.619L88.9266 126.051C87.7755 126.916 86.6963 127.907 85.4553 128.646L83.6387 129.816C83.0092 130.177 82.3617 130.501 81.7322 130.843C80.4732 131.564 79.1242 132.05 77.7933 132.627C76.4443 133.131 75.0774 133.564 73.6925 133.96C72.2716 134.248 70.9406 134.68 69.4478 134.825L67.2535 135.113C66.516 135.203 65.8865 135.203 65.1851 135.239L64.1599 135.293H63.6563L63.4044 135.329H63.0447L60.8864 135.257C59.4655 135.149 58.0087 135.077 56.6057 134.807C55.1848 134.608 53.7819 134.266 52.379 133.942C50.9941 133.528 49.6092 133.131 48.2782 132.591C46.9293 132.086 45.6163 131.474 44.3213 130.807C43.0263 130.159 41.8033 129.384 40.5802 128.591C39.3931 127.745 38.224 126.898 37.1269 125.925C36.5513 125.475 36.0477 124.952 35.5261 124.448C34.9866 123.944 34.4829 123.421 34.0153 122.863C33.0261 121.8 32.1268 120.611 31.2814 119.422C30.4361 118.215 29.7167 116.936 29.0332 115.621L31.821 116.9L30.0764 117.224L29.213 117.368L28.4756 117.404L26.8569 117.494L25.2022 117.386C24.105 117.26 22.9899 117.116 21.9287 116.792C20.8496 116.54 19.8064 116.125 18.7991 115.675L17.3063 114.936L15.9034 114.054C15.0041 113.423 14.1048 112.757 13.3314 111.982C12.9177 111.622 12.54 111.225 12.1803 110.793C11.8206 110.379 11.4429 109.982 11.1371 109.514C10.4536 108.649 9.89607 107.694 9.35649 106.74C8.87087 105.749 8.42122 104.758 8.07948 103.695C7.88164 103.191 7.77372 102.65 7.62983 102.11C7.48594 101.587 7.37803 101.047 7.30608 100.452C7.25213 99.912 7.10824 99.2455 7.12622 98.7951L7.07227 97.2098C7.14421 96.1109 7.18018 95.03 7.414 93.9491C7.55789 92.8682 7.91761 91.8234 8.24136 90.7965L8.85288 89.2833C9.0867 88.7969 9.35649 88.3105 9.60829 87.8421C9.84211 87.3557 10.1659 86.9234 10.4716 86.455C10.7594 86.0046 11.0831 85.5542 11.4429 85.1399C12.1083 84.2752 12.8817 83.5186 13.6551 82.78L13.2774 84.9597C12.7019 83.8068 11.9824 82.6899 11.5688 81.4649C11.1191 80.2399 10.6335 79.0329 10.3817 77.6638C10.2378 76.9972 10.0759 76.3127 9.96801 75.6641L9.80614 73.8627L9.71621 72.9619V72.7457L9.69822 72.4755V72.3494V71.863L9.75218 69.8814C9.93204 68.5663 10.004 67.2332 10.3637 65.9542C10.6335 64.6571 11.0831 63.3961 11.5328 62.1531C12.0724 60.9461 12.576 59.7031 13.2954 58.5862C13.9429 57.4152 14.7523 56.3703 15.5437 55.2895C16.425 54.2986 17.2703 53.2718 18.2955 52.4071C19.2488 51.4703 20.3459 50.7137 21.4251 49.9211C22.5582 49.2365 23.6913 48.5159 24.9144 47.9935C26.1015 47.381 27.3785 46.9846 28.6375 46.5703C29.9325 46.2821 31.1915 45.9218 32.5944 45.7957C34.0333 45.5615 35.1484 45.6155 36.3715 45.5795C37.9003 45.6696 39.0514 45.8677 40.3824 46.0119C41.6594 46.3001 42.9184 46.6784 44.1594 47.0387L41.6774 48.624L42.127 45.3453C42.3069 44.2464 42.6306 43.2016 42.8644 42.1027C43.0803 41.0038 43.5299 39.9949 43.8716 38.9321C44.1954 37.8692 44.663 36.8604 45.1307 35.8335L45.8321 34.3203L46.6595 32.8611C47.217 31.8883 47.7566 30.9155 48.4401 30.0148C49.6811 28.1412 51.12 26.4298 52.6488 24.7725C53.4402 23.9798 54.2136 23.1511 55.0589 22.4125L57.6669 20.2688L60.4548 18.3592C61.408 17.7647 62.4152 17.2423 63.3865 16.6838C65.4009 15.657 67.4693 14.7382 69.6276 14.0717C70.6888 13.6754 71.7859 13.4052 72.8831 13.1529L74.5378 12.7566C75.0954 12.6485 75.6889 12.5765 76.2645 12.4864C77.3976 12.3243 78.6566 12.1081 79.6458 12.1081L81.2106 12.036L82.002 12H82.5416H82.9732C85.2215 12.054 87.4877 12.2162 89.718 12.6305C90.8331 12.8467 91.9483 13.0449 93.0274 13.3691L94.6641 13.8195L96.2649 14.3779C98.4052 15.0985 100.456 16.0713 102.434 17.1522C103.423 17.6927 104.359 18.3232 105.312 18.9177C106.229 19.5662 107.146 20.2147 108.028 20.9173C109.772 22.3405 111.445 23.8357 112.938 25.5111C113.693 26.3397 114.413 27.2045 115.06 28.1052C115.762 28.9699 116.373 29.9247 116.985 30.8614C117.632 31.7802 118.118 32.789 118.675 33.7438C119.197 34.7346 119.629 35.7615 120.096 36.7703L117.884 35.4372L121.535 35.221H121.769H121.895H122.147L122.632 35.257L123.604 35.3111L125.546 35.4012C126.841 35.5993 128.118 35.7615 129.413 35.9957C130.672 36.3199 131.949 36.6082 133.19 37.0045C134.413 37.4729 135.672 37.8512 136.841 38.4096C137.992 39.0041 139.233 39.4725 140.313 40.1931C141.41 40.8777 142.579 41.5082 143.586 42.3368C144.629 43.1115 145.69 43.8861 146.626 44.8049L148.065 46.1199L149.378 47.5611C150.295 48.4979 151.068 49.5427 151.842 50.6056C152.669 51.6144 153.299 52.7674 153.982 53.8843C154.701 54.9652 155.169 56.2082 155.763 57.3611C156.338 58.5321 156.698 59.7931 157.166 61.0181C157.579 62.2612 157.849 63.5402 158.173 64.8012C158.425 66.0983 158.586 67.4494 158.802 68.7825L159 72.4575V72.5836L158.964 72.6377Z" fill="#F2F0FF"/>
<g clip-path="url(#clip1_1828_5217)">
<path d="M100.625 78.5C100.625 74.7174 99.5033 71.0198 97.4019 67.8747C95.3004 64.7296 92.3135 62.2783 88.8188 60.8308C85.3242 59.3833 81.4788 59.0045 77.7689 59.7425C74.059 60.4804 70.6513 62.3019 67.9766 64.9766C65.3019 67.6513 63.4804 71.059 62.7425 74.7689C62.0045 78.4788 62.3833 82.3242 63.8308 85.8188C65.2783 89.3135 67.7296 92.3004 70.8747 94.4019C74.0198 96.5033 77.7174 97.625 81.5 97.625" stroke="#2E0081" stroke-width="2" stroke-linecap="round" stroke-linejoin="round"/>
<path d="M75.125 74.25H75.1453" stroke="#2E0081" stroke-width="2" stroke-linecap="round" stroke-linejoin="round"/>
<path d="M87.875 74.25H87.8953" stroke="#2E0081" stroke-width="2" stroke-linecap="round" stroke-linejoin="round"/>
<path d="M76.1875 84.875C77.5857 86.303 79.5025 87 81.5 87" stroke="#2E0081" stroke-width="2" stroke-linecap="round" stroke-linejoin="round"/>
<path d="M87.875 91.25C87.875 92.9408 88.5466 94.5623 89.7422 95.7578C90.9377 96.9534 92.5592 97.625 94.25 97.625C95.9408 97.625 97.5623 96.9534 98.7578 95.7578C99.9534 94.5623 100.625 92.9408 100.625 91.25C100.625 89.5592 99.9534 87.9377 98.7578 86.7422C97.5623 85.5466 95.9408 84.875 94.25 84.875C92.5592 84.875 90.9377 85.5466 89.7422 86.7422C88.5466 87.9377 87.875 89.5592 87.875 91.25Z" stroke="#2E0081" stroke-width="2" stroke-linecap="round" stroke-linejoin="round"/>
<path d="M98.9258 95.925L102.751 99.75" stroke="#2E0081" stroke-width="2" stroke-linecap="round" stroke-linejoin="round"/>
</g>
</g>
<defs>
<clipPath id="clip0_1828_5217">
<rect width="162" height="149" fill="white" transform="translate(0 9.5)"/>
</clipPath>
<clipPath id="clip1_1828_5217">
<rect width="51" height="51" fill="white" transform="translate(56 53)"/>
</clipPath>
</defs>
</svg>
