<svg width="162" height="168" viewBox="0 0 162 168" fill="none" xmlns="http://www.w3.org/2000/svg">
<g clip-path="url(#clip0_1828_5217)">
<path d="M34.8922 135.028C34.8922 135.028 34.8921 135.298 34.8562 135.82C34.8382 136.325 34.6763 137.423 34.3346 138.432C33.9569 139.495 33.3454 140.738 32.3561 141.927C31.3669 143.116 30.0359 144.269 28.3812 145.152C26.7265 146.035 24.784 146.665 22.6796 146.881C22.1221 146.899 21.6724 146.953 21.007 146.935C20.5033 146.899 20.1077 146.935 19.4781 146.845C18.2731 146.737 17.1939 146.485 16.0788 146.107C13.8845 145.332 11.7262 144.035 10.0715 142.089C8.38077 140.162 7.35557 137.676 7.39154 134.811C7.40953 133.875 7.71529 132.199 8.2189 131.1C8.70452 129.893 9.45993 128.848 10.2693 127.93C11.942 126.074 14.0823 124.903 16.2227 124.201C18.363 123.516 20.6472 123.336 22.5717 123.516C24.7301 123.75 26.5287 124.327 28.1654 125.137C29.7661 125.966 31.1151 126.993 32.1223 128.128C33.1295 129.245 33.795 130.434 34.2087 131.479C34.5864 132.523 34.7663 133.406 34.8202 134.001C34.8742 134.595 34.8922 134.919 34.8922 134.919V135.009V135.028ZM31.8525 134.937C31.8525 134.937 31.8525 134.721 31.8345 134.289C31.8165 133.875 31.7266 133.262 31.4928 132.487C31.223 131.731 30.7913 130.848 30.0539 129.947C29.3165 129.065 28.2913 128.164 26.9783 127.515C25.7013 126.849 24.0466 126.38 22.4638 126.272C20.6472 126.146 18.9206 126.38 17.1759 126.975C15.4673 127.605 13.8485 128.65 12.6974 130.055C12.1219 130.758 11.6362 131.533 11.3485 132.361C11.0427 133.298 10.9348 133.784 10.9168 135.028C11.0067 136.541 11.7082 138.36 12.8953 139.621C14.0644 140.954 15.6651 141.873 17.3198 142.432C18.1472 142.684 19.0465 142.918 19.7839 142.99C20.1256 143.062 20.7192 143.062 21.1688 143.08C21.4746 143.08 21.9602 143.062 22.3379 143.044C23.9567 142.918 25.4675 142.522 26.7265 141.909C29.3165 140.702 30.7374 138.739 31.3129 137.315C31.5827 136.523 31.6906 136.126 31.7626 135.622C31.7986 135.118 31.8345 134.847 31.8345 134.847V134.937H31.8525Z" fill="#F2F0FF"/>
<path d="M15.5497 152.249C15.5497 152.249 15.5497 152.375 15.5318 152.609C15.5138 152.843 15.5497 153.132 15.2979 153.852C15.1001 154.573 14.7224 155.149 14.2188 155.798C13.6972 156.41 13.0137 157.023 12.1684 157.491C11.323 157.96 10.3338 158.32 9.25465 158.428L8.84097 158.482H8.62514L8.51722 158.518H8.2834L7.61792 158.482C7.2582 158.5 6.44883 158.32 5.8373 158.158C4.65023 157.743 3.48114 157.167 2.56385 156.104C1.62858 155.077 0.98108 153.618 1.01705 152.087V151.853H1.03504V151.781V151.69L1.089 151.51L1.16094 151.132C1.16094 151.042 1.2149 150.844 1.30483 150.628L1.53865 150.033C1.70052 149.601 1.89837 149.312 2.1142 149.042C2.33003 148.772 2.50989 148.466 2.77968 148.268C3.71495 147.277 4.90203 146.808 5.99918 146.466C7.1323 146.214 8.22944 146.106 9.25465 146.25C9.47048 146.286 9.66832 146.286 9.90214 146.34C10.1719 146.412 10.4237 146.484 10.6755 146.538C11.1971 146.664 11.6108 146.899 12.0065 147.079C12.8159 147.493 13.4814 148.033 14.0209 148.574C14.5245 149.15 14.9562 149.709 15.1541 150.267C15.4238 150.79 15.4778 151.276 15.5318 151.582C15.5857 151.907 15.6037 152.069 15.6037 152.069V152.231L15.5497 152.249ZM12.8518 152.069C12.8518 152.069 12.8518 151.997 12.8339 151.835C12.8339 151.69 12.8339 151.456 12.7259 151.186C12.6 150.628 12.0425 149.763 10.8914 149.294C10.6036 149.204 10.3158 149.042 10.028 149.024L9.59638 148.934C9.43451 148.916 9.1827 148.916 8.98486 148.898C8.2834 148.844 7.54597 149.006 6.86251 149.258C6.21501 149.565 5.54953 149.943 5.18981 150.501C5.0639 150.61 5.02793 150.772 4.938 150.898C4.84807 151.042 4.77613 151.168 4.79411 151.222C4.79411 151.258 4.77613 151.294 4.75814 151.33C4.74016 151.33 4.70418 151.384 4.70418 151.546V151.925L4.66821 152.123V152.213V152.267V152.303C4.66821 152.213 4.66821 152.537 4.66821 152.087C4.74016 152.591 4.99196 153.042 5.38765 153.492C5.76536 153.942 6.43084 154.231 6.98841 154.465C7.29417 154.501 7.36611 154.663 7.92368 154.681L8.58916 154.771H8.62514H8.64312C8.64312 154.771 8.35535 154.771 8.49923 154.771H8.55319H8.67909H8.91291C9.56041 154.807 10.1539 154.645 10.6755 154.465C11.1971 154.285 11.6108 154.014 11.9346 153.744C12.2223 153.474 12.4741 153.132 12.5281 153.006C12.672 152.933 12.7259 152.501 12.7619 152.285C12.7979 152.051 12.8339 151.925 12.8339 151.925V152.087L12.8518 152.069Z" fill="#F2F0FF"/>
<path d="M158.964 72.6377L158.658 77.1053C158.568 77.8439 158.389 78.5645 158.263 79.3031L157.831 81.5009C157.669 82.2215 157.399 82.9241 157.184 83.6447L156.482 85.7704C156.248 86.473 155.871 87.1215 155.583 87.8061L154.647 89.8237C154.324 90.4903 153.892 91.1028 153.514 91.7333L152.345 93.6248C151.932 94.2373 151.428 94.7958 150.978 95.3903L149.593 97.1377C148.568 98.2006 147.489 99.2274 146.428 100.272L142.921 102.993L143.748 100.867L144.252 103.677C144.449 104.65 144.413 105.425 144.503 106.307L144.557 106.956V107.28L144.593 107.442V107.64V107.73L144.557 109.118C144.521 110.036 144.539 110.973 144.359 111.892C144.162 113.747 143.73 115.549 143.244 117.35L142.309 119.98C141.967 120.845 141.536 121.674 141.158 122.521C140.295 124.16 139.341 125.781 138.19 127.24C137.651 128.015 137.057 128.718 136.41 129.402C135.798 130.105 135.169 130.789 134.467 131.402C133.136 132.699 131.625 133.816 130.097 134.879C129.305 135.365 128.514 135.869 127.686 136.302L125.168 137.509C123.424 138.193 121.679 138.824 119.845 139.22C118.963 139.49 117.974 139.58 117.021 139.743L115.582 139.941L114.287 139.995L112.992 140.049H112.668L112.38 140.067H112.201L111.499 140.013L108.711 139.833C107.776 139.761 106.877 139.508 105.959 139.346C105.042 139.166 104.125 139.004 103.261 138.662L100.618 137.779L98.0995 136.59C97.2361 136.23 96.4448 135.743 95.6714 135.221C94.898 134.698 94.0706 134.266 93.3691 133.672C91.9303 132.501 90.4734 131.348 89.2683 129.943C87.9194 128.664 86.9302 127.078 85.797 125.619L88.9266 126.051C87.7755 126.916 86.6963 127.907 85.4553 128.646L83.6387 129.816C83.0092 130.177 82.3617 130.501 81.7322 130.843C80.4732 131.564 79.1242 132.05 77.7933 132.627C76.4443 133.131 75.0774 133.564 73.6925 133.96C72.2716 134.248 70.9406 134.68 69.4478 134.825L67.2535 135.113C66.516 135.203 65.8865 135.203 65.1851 135.239L64.1599 135.293H63.6563L63.4044 135.329H63.0447L60.8864 135.257C59.4655 135.149 58.0087 135.077 56.6057 134.807C55.1848 134.608 53.7819 134.266 52.379 133.942C50.9941 133.528 49.6092 133.131 48.2782 132.591C46.9293 132.086 45.6163 131.474 44.3213 130.807C43.0263 130.159 41.8033 129.384 40.5802 128.591C39.3931 127.745 38.224 126.898 37.1269 125.925C36.5513 125.475 36.0477 124.953 35.5261 124.448C34.9866 123.944 34.4829 123.421 34.0153 122.863C33.0261 121.8 32.1268 120.611 31.2814 119.422C30.4361 118.215 29.7167 116.936 29.0332 115.621L31.821 116.9L30.0764 117.224L29.213 117.368L28.4756 117.404L26.8569 117.494L25.2022 117.386C24.105 117.26 22.9899 117.116 21.9287 116.792C20.8496 116.54 19.8064 116.125 18.7991 115.675L17.3063 114.936L15.9034 114.054C15.0041 113.423 14.1048 112.757 13.3314 111.982C12.9177 111.622 12.54 111.225 12.1803 110.793C11.8206 110.379 11.4429 109.982 11.1371 109.514C10.4536 108.649 9.89607 107.694 9.35649 106.74C8.87087 105.749 8.42122 104.758 8.07948 103.695C7.88164 103.191 7.77372 102.65 7.62983 102.11C7.48594 101.587 7.37803 101.047 7.30608 100.452C7.25213 99.912 7.10824 99.2455 7.12622 98.7951L7.07227 97.2098C7.14421 96.1109 7.18018 95.03 7.414 93.9491C7.55789 92.8682 7.91761 91.8234 8.24136 90.7965L8.85288 89.2833C9.0867 88.7969 9.35649 88.3105 9.60829 87.8421C9.84211 87.3557 10.1659 86.9234 10.4716 86.455C10.7594 86.0046 11.0831 85.5542 11.4429 85.1399C12.1083 84.2752 12.8817 83.5186 13.6551 82.78L13.2774 84.9597C12.7019 83.8068 11.9824 82.6899 11.5688 81.4649C11.1191 80.2399 10.6335 79.0329 10.3817 77.6638C10.2378 76.9972 10.0759 76.3127 9.96801 75.6641L9.80614 73.8627L9.71621 72.9619V72.7457L9.69822 72.4755V72.3494V71.863L9.75218 69.8814C9.93204 68.5663 10.004 67.2332 10.3637 65.9542C10.6335 64.6571 11.0831 63.3961 11.5328 62.1531C12.0724 60.9461 12.576 59.7031 13.2954 58.5862C13.9429 57.4152 14.7523 56.3703 15.5437 55.2895C16.425 54.2986 17.2703 53.2718 18.2955 52.4071C19.2488 51.4703 20.3459 50.7137 21.4251 49.9211C22.5582 49.2365 23.6913 48.5159 24.9144 47.9935C26.1015 47.381 27.3785 46.9846 28.6375 46.5703C29.9325 46.2821 31.1915 45.9218 32.5944 45.7957C34.0333 45.5615 35.1484 45.6155 36.3715 45.5795C37.9003 45.6696 39.0514 45.8677 40.3824 46.0119C41.6594 46.3001 42.9184 46.6784 44.1594 47.0387L41.6774 48.624L42.127 45.3453C42.3069 44.2464 42.6306 43.2016 42.8644 42.1027C43.0803 41.0038 43.5299 39.9949 43.8716 38.9321C44.1954 37.8692 44.663 36.8604 45.1307 35.8335L45.8321 34.3203L46.6595 32.8611C47.217 31.8883 47.7566 30.9155 48.4401 30.0148C49.6811 28.1412 51.12 26.4298 52.6488 24.7725C53.4402 23.9798 54.2136 23.1511 55.0589 22.4125L57.6669 20.2688L60.4548 18.3592C61.408 17.7647 62.4152 17.2423 63.3865 16.6838C65.4009 15.657 67.4693 14.7382 69.6276 14.0717C70.6888 13.6754 71.7859 13.4052 72.8831 13.1529L74.5378 12.7566C75.0954 12.6485 75.6889 12.5765 76.2645 12.4864C77.3976 12.3243 78.6566 12.1081 79.6458 12.1081L81.2106 12.036L82.002 12H82.5416H82.9732C85.2215 12.054 87.4877 12.2162 89.718 12.6305C90.8331 12.8467 91.9483 13.0449 93.0274 13.3691L94.6641 13.8195L96.2649 14.3779C98.4052 15.0985 100.456 16.0713 102.434 17.1522C103.423 17.6927 104.359 18.3232 105.312 18.9177C106.229 19.5662 107.146 20.2147 108.028 20.9173C109.772 22.3405 111.445 23.8357 112.938 25.5111C113.693 26.3397 114.413 27.2045 115.06 28.1052C115.762 28.9699 116.373 29.9247 116.985 30.8614C117.632 31.7802 118.118 32.789 118.675 33.7438C119.197 34.7346 119.629 35.7615 120.096 36.7703L117.884 35.4372L121.535 35.221H121.769H121.895H122.147L122.632 35.257L123.604 35.3111L125.546 35.4012C126.841 35.5993 128.118 35.7615 129.413 35.9957C130.672 36.3199 131.949 36.6082 133.19 37.0045C134.413 37.4729 135.672 37.8512 136.841 38.4096C137.992 39.0041 139.233 39.4725 140.313 40.1931C141.41 40.8777 142.579 41.5082 143.586 42.3368C144.629 43.1115 145.69 43.8861 146.626 44.8049L148.065 46.1199L149.378 47.5611C150.295 48.4979 151.068 49.5427 151.842 50.6056C152.669 51.6144 153.299 52.7674 153.982 53.8843C154.701 54.9652 155.169 56.2082 155.763 57.3611C156.338 58.5321 156.698 59.7931 157.166 61.0181C157.579 62.2612 157.849 63.5402 158.173 64.8012C158.425 66.0983 158.586 67.4494 158.802 68.7825L159 72.4575V72.5836L158.964 72.6377Z" fill="#F2F0FF"/>
<mask id="path-4-inside-1_1828_5217" fill="white">
<path d="M77.5838 50.3127C72.6453 50.3127 67.707 52.1914 63.9492 55.9492C56.4336 63.4648 56.4336 75.7027 63.9492 83.2183C67.707 86.9762 72.633 88.8559 77.6096 88.8559C82.5861 88.8559 87.5121 86.9762 91.2699 83.2183C98.7348 75.7027 98.734 63.4648 91.2184 55.9492C87.4605 52.1914 82.5223 50.3127 77.5838 50.3127ZM77.559 53.309C81.7231 53.309 85.8869 54.8824 89.0354 58.0816C95.383 64.4293 95.3828 74.7383 89.0859 81.0859C82.7383 87.4336 72.4293 87.4336 66.0816 81.0859C59.734 74.7383 59.734 64.4293 66.0816 58.0816C69.2301 54.9332 73.3949 53.309 77.559 53.309ZM77.559 56.3559C74.0551 56.3559 70.7539 57.7265 68.2656 60.2656C65.8789 62.6523 64.5588 65.7502 64.4064 69.1017C64.3557 69.965 65.016 70.625 65.8793 70.6758H65.9299C66.7424 70.6758 67.4025 70.0154 67.4533 69.2029C67.5549 66.6131 68.6207 64.2262 70.398 62.398C72.3277 60.4683 74.8676 59.4027 77.559 59.4027C78.4223 59.4027 79.0824 58.7426 79.0824 57.8793C79.0824 57.016 78.4223 56.3559 77.559 56.3559ZM68.7734 75.5C68.3694 75.5 67.9819 75.6605 67.6962 75.9462C67.4105 76.2319 67.25 76.6194 67.25 77.0234C67.25 77.4275 67.4105 77.815 67.6962 78.1007C67.9819 78.3864 68.3694 78.5469 68.7734 78.5469C69.1775 78.5469 69.565 78.3864 69.8507 78.1007C70.1364 77.815 70.2969 77.4275 70.2969 77.0234C70.2969 76.6194 70.1364 76.2319 69.8507 75.9462C69.565 75.6605 69.1775 75.5 68.7734 75.5ZM93.3329 83.8789C92.9457 83.8789 92.5648 84.0314 92.2856 84.3361C91.6762 84.9455 91.6762 85.9099 92.2856 86.4685L93.5551 87.7381C93.2504 88.3474 93.0979 89.0078 93.0979 89.7187C93.0979 90.9375 93.5547 92.1057 94.418 92.9689L100.918 99.3672C101.832 100.281 103 100.738 104.168 100.738C105.336 100.738 106.504 100.281 107.418 99.4178C109.195 97.6404 109.195 94.7463 107.418 92.9689L100.918 86.4685C100.055 85.6053 98.8869 85.1484 97.6682 85.1484C96.9572 85.1484 96.2969 85.301 95.6875 85.6057L94.418 84.3361C94.1133 84.0314 93.7201 83.8789 93.3329 83.8789ZM97.6682 88.1447C98.0744 88.1447 98.4805 88.2973 98.7344 88.6019L105.183 95.0508C105.793 95.6601 105.793 96.6246 105.183 97.1832C104.574 97.7926 103.609 97.7926 103.051 97.1832L96.602 90.7849C96.2973 90.4803 96.1447 90.0744 96.1447 89.6682C96.1447 89.2619 96.2973 88.8559 96.602 88.6019C96.9066 88.2973 97.2619 88.1447 97.6682 88.1447Z"/>
</mask>
<path d="M77.5838 50.3127C72.6453 50.3127 67.707 52.1914 63.9492 55.9492C56.4336 63.4648 56.4336 75.7027 63.9492 83.2183C67.707 86.9762 72.633 88.8559 77.6096 88.8559C82.5861 88.8559 87.5121 86.9762 91.2699 83.2183C98.7348 75.7027 98.734 63.4648 91.2184 55.9492C87.4605 52.1914 82.5223 50.3127 77.5838 50.3127ZM77.559 53.309C81.7231 53.309 85.8869 54.8824 89.0354 58.0816C95.383 64.4293 95.3828 74.7383 89.0859 81.0859C82.7383 87.4336 72.4293 87.4336 66.0816 81.0859C59.734 74.7383 59.734 64.4293 66.0816 58.0816C69.2301 54.9332 73.3949 53.309 77.559 53.309ZM77.559 56.3559C74.0551 56.3559 70.7539 57.7265 68.2656 60.2656C65.8789 62.6523 64.5588 65.7502 64.4064 69.1017C64.3557 69.965 65.016 70.625 65.8793 70.6758H65.9299C66.7424 70.6758 67.4025 70.0154 67.4533 69.2029C67.5549 66.6131 68.6207 64.2262 70.398 62.398C72.3277 60.4683 74.8676 59.4027 77.559 59.4027C78.4223 59.4027 79.0824 58.7426 79.0824 57.8793C79.0824 57.016 78.4223 56.3559 77.559 56.3559ZM68.7734 75.5C68.3694 75.5 67.9819 75.6605 67.6962 75.9462C67.4105 76.2319 67.25 76.6194 67.25 77.0234C67.25 77.4275 67.4105 77.815 67.6962 78.1007C67.9819 78.3864 68.3694 78.5469 68.7734 78.5469C69.1775 78.5469 69.565 78.3864 69.8507 78.1007C70.1364 77.815 70.2969 77.4275 70.2969 77.0234C70.2969 76.6194 70.1364 76.2319 69.8507 75.9462C69.565 75.6605 69.1775 75.5 68.7734 75.5ZM93.3329 83.8789C92.9457 83.8789 92.5648 84.0314 92.2856 84.3361C91.6762 84.9455 91.6762 85.9099 92.2856 86.4685L93.5551 87.7381C93.2504 88.3474 93.0979 89.0078 93.0979 89.7187C93.0979 90.9375 93.5547 92.1057 94.418 92.9689L100.918 99.3672C101.832 100.281 103 100.738 104.168 100.738C105.336 100.738 106.504 100.281 107.418 99.4178C109.195 97.6404 109.195 94.7463 107.418 92.9689L100.918 86.4685C100.055 85.6053 98.8869 85.1484 97.6682 85.1484C96.9572 85.1484 96.2969 85.301 95.6875 85.6057L94.418 84.3361C94.1133 84.0314 93.7201 83.8789 93.3329 83.8789ZM97.6682 88.1447C98.0744 88.1447 98.4805 88.2973 98.7344 88.6019L105.183 95.0508C105.793 95.6601 105.793 96.6246 105.183 97.1832C104.574 97.7926 103.609 97.7926 103.051 97.1832L96.602 90.7849C96.2973 90.4803 96.1447 90.0744 96.1447 89.6682C96.1447 89.2619 96.2973 88.8559 96.602 88.6019C96.9066 88.2973 97.2619 88.1447 97.6682 88.1447Z" fill="#2E0081"/>
<path d="M91.2699 83.2183L109.655 101.603L109.686 101.572L109.717 101.541L91.2699 83.2183ZM89.0354 58.0816L70.5041 76.3187L70.577 76.3929L70.6506 76.4664L89.0354 58.0816ZM89.0859 81.0859L107.471 99.4707L107.508 99.4338L107.544 99.3967L89.0859 81.0859ZM68.2656 60.2656L86.6504 78.6504L86.7433 78.5575L86.8352 78.4638L68.2656 60.2656ZM64.4064 69.1017L90.3616 70.6285L90.3718 70.4555L90.3796 70.2823L64.4064 69.1017ZM65.8793 70.6758L64.3525 96.6309L65.1153 96.6758H65.8793V70.6758ZM67.4533 69.2029L93.4027 70.8247L93.4215 70.5234L93.4334 70.2217L67.4533 69.2029ZM70.398 62.398L52.0133 44.0132L51.8838 44.1427L51.7562 44.274L70.398 62.398ZM67.25 77.0234L41.25 77.0234L67.25 77.0234ZM92.2856 84.3361L110.67 102.721L111.07 102.321L111.452 101.905L92.2856 84.3361ZM92.2856 86.4685L110.67 68.0838L110.271 67.6843L109.854 67.3025L92.2856 86.4685ZM93.5551 87.7381L116.81 99.3656L125.191 82.6043L111.94 69.3533L93.5551 87.7381ZM94.418 92.9689L76.0332 111.354L76.106 111.427L76.1794 111.499L94.418 92.9689ZM100.918 99.3672L119.303 80.9824L119.23 80.9096L119.157 80.8374L100.918 99.3672ZM107.418 99.4178L125.27 118.32L125.54 118.065L125.803 117.803L107.418 99.4178ZM107.418 92.9689L89.0316 111.352L89.033 111.354L107.418 92.9689ZM100.918 86.4685L119.305 68.0852L119.303 68.0838L100.918 86.4685ZM95.6875 85.6057L77.3027 103.99L90.5537 117.241L107.315 108.861L95.6875 85.6057ZM98.7344 88.6019L78.7606 105.247L79.5156 106.153L80.3496 106.987L98.7344 88.6019ZM105.183 97.1832L87.6144 78.0172L87.1979 78.3989L86.7984 78.7984L105.183 97.1832ZM103.051 97.1832L122.217 79.6143L121.8 79.1601L121.363 78.7262L103.051 97.1832ZM96.602 90.7849L78.2172 109.17L78.2534 109.206L78.2897 109.242L96.602 90.7849ZM96.602 88.6019L113.247 108.576L114.153 107.821L114.987 106.987L96.602 88.6019ZM77.5838 24.3127C66.0605 24.3127 54.4137 28.7152 45.5644 37.5644L82.334 74.334C81.0004 75.6676 79.2301 76.3127 77.5838 76.3127V24.3127ZM45.5644 37.5644C27.8952 55.2337 27.8952 83.9339 45.5644 101.603L82.334 64.8336C84.972 67.4716 84.972 71.696 82.334 74.334L45.5644 37.5644ZM45.5644 101.603C54.4179 110.457 66.0544 114.856 77.6096 114.856V62.8559C79.2116 62.8559 80.9962 63.4958 82.334 64.8336L45.5644 101.603ZM77.6096 114.856C89.1648 114.856 100.801 110.457 109.655 101.603L72.8852 64.8336C74.223 63.4958 76.0075 62.8559 77.6096 62.8559V114.856ZM109.717 101.541C127.264 83.8743 127.261 55.2221 109.603 37.5644L72.8336 74.334C70.2071 71.7075 70.2056 67.5311 72.8229 64.896L109.717 101.541ZM109.603 37.5644C100.754 28.7152 89.107 24.3127 77.5838 24.3127V76.3127C75.9375 76.3127 74.1672 75.6676 72.8336 74.334L109.603 37.5644ZM77.559 79.309C75.1836 79.309 72.5354 78.3828 70.5041 76.3187L107.567 39.8445C99.2384 31.382 88.2625 27.309 77.559 27.309V79.309ZM70.6506 76.4664C66.8563 72.6721 66.8574 66.5756 70.6275 62.7751L107.544 99.3967C123.908 82.9009 123.91 56.1865 107.42 39.6968L70.6506 76.4664ZM70.7012 62.7011C74.5071 58.8952 80.6604 58.8952 84.4664 62.7011L47.6969 99.4707C64.1981 115.972 90.9694 115.972 107.471 99.4707L70.7012 62.7011ZM84.4664 62.7011C88.2724 66.5071 88.2724 72.6604 84.4664 76.4664L47.6969 39.6968C31.1956 56.1981 31.1956 82.9694 47.6969 99.4707L84.4664 62.7011ZM84.4664 76.4664C82.6201 78.3127 80.1207 79.309 77.559 79.309V27.309C66.6692 27.309 55.8401 31.5536 47.6969 39.6968L84.4664 76.4664ZM77.559 30.3559C67.0965 30.3559 57.0942 34.5184 49.6961 42.0675L86.8352 78.4638C84.4136 80.9347 81.0137 82.3559 77.559 82.3559V30.3559ZM49.8808 41.8808C42.7518 49.0099 38.8701 58.3115 38.4333 67.9211L90.3796 70.2823C90.2475 73.1888 89.006 76.2948 86.6504 78.6504L49.8808 41.8808ZM38.4513 67.575C37.4564 84.4879 50.9319 95.8415 64.3525 96.6309L67.4061 44.7206C79.1001 45.4085 91.2549 55.4422 90.3616 70.6285L38.4513 67.575ZM65.8793 96.6758H65.9299V44.6758H65.8793V96.6758ZM65.9299 96.6758C81.3916 96.6758 92.554 84.403 93.4027 70.8247L41.504 67.5811C42.251 55.6278 52.0931 44.6758 65.9299 44.6758V96.6758ZM93.4334 70.2217C93.2746 74.2705 91.5749 77.9147 89.0399 80.5221L51.7562 44.274C45.6665 50.5376 41.8352 58.9556 41.4733 68.1841L93.4334 70.2217ZM88.7828 80.7828C85.9366 83.6291 81.9034 85.4027 77.559 85.4027V33.4027C67.8318 33.4027 58.7189 37.3076 52.0133 44.0132L88.7828 80.7828ZM77.559 85.4027C92.7817 85.4027 105.082 73.102 105.082 57.8793H53.0824C53.0824 44.3832 64.0629 33.4027 77.559 33.4027V85.4027ZM105.082 57.8793C105.082 42.6566 92.7817 30.3559 77.559 30.3559V82.3559C64.0629 82.3559 53.0824 71.3754 53.0824 57.8793H105.082ZM68.7734 49.5C61.4738 49.5 54.4731 52.3997 49.3114 57.5614L86.081 94.331C81.4907 98.9212 75.265 101.5 68.7734 101.5V49.5ZM49.3114 57.5614C44.1498 62.723 41.25 69.7237 41.25 77.0234L93.25 77.0234C93.25 83.515 90.6712 89.7407 86.081 94.331L49.3114 57.5614ZM41.25 77.0234C41.25 84.3231 44.1498 91.3238 49.3114 96.4854L86.081 59.7159C90.6712 64.3061 93.25 70.5318 93.25 77.0234L41.25 77.0234ZM49.3114 96.4854C54.4731 101.647 61.4738 104.547 68.7734 104.547V52.5469C75.265 52.5469 81.4907 55.1256 86.081 59.7159L49.3114 96.4854ZM68.7734 104.547C76.0731 104.547 83.0738 101.647 88.2354 96.4854L51.4659 59.7159C56.0562 55.1256 62.2819 52.5469 68.7734 52.5469V104.547ZM88.2354 96.4854C93.3971 91.3238 96.2969 84.3231 96.2969 77.0234H44.2969C44.2969 70.5318 46.8757 64.3061 51.4659 59.7159L88.2354 96.4854ZM96.2969 77.0234C96.2969 69.7237 93.3971 62.723 88.2354 57.5614L51.4659 94.331C46.8757 89.7407 44.2969 83.515 44.2969 77.0234H96.2969ZM88.2354 57.5614C83.0738 52.3997 76.0731 49.5 68.7734 49.5V101.5C62.2819 101.5 56.0562 98.9212 51.4659 94.331L88.2354 57.5614ZM93.3329 57.8789C86.076 57.8789 78.5992 60.7895 73.1195 66.7673L111.452 101.905C106.531 107.273 99.8154 109.879 93.3329 109.879V57.8789ZM73.9008 65.9513C63.6024 76.2497 62.4012 94.3453 74.7167 105.635L109.854 67.3025C120.951 77.4746 119.75 93.6413 110.67 102.721L73.9008 65.9513ZM73.9008 104.853L75.1703 106.123L111.94 69.3533L110.67 68.0838L73.9008 104.853ZM70.3 76.1105C68.1127 80.4851 67.0979 85.1483 67.0979 89.7187H119.098C119.098 92.8673 118.388 96.2098 116.81 99.3656L70.3 76.1105ZM67.0979 89.7187C67.0979 97.441 70.0235 105.344 76.0332 111.354L112.803 74.5842C117.086 78.8672 119.098 84.4339 119.098 89.7187H67.0979ZM76.1794 111.499L82.6798 117.897L119.157 80.8374L112.657 74.4391L76.1794 111.499ZM82.5336 117.752C88.3338 123.552 96.1184 126.738 104.168 126.738V74.7379C109.881 74.7379 115.331 77.0103 119.303 80.9824L82.5336 117.752ZM104.168 126.738C112.121 126.738 119.638 123.64 125.27 118.32L89.5656 80.5154C93.3699 76.9224 98.5499 74.7379 104.168 74.7379V126.738ZM125.803 117.803C137.734 105.872 137.734 86.5151 125.803 74.5842L89.033 111.354C80.6567 102.977 80.6567 89.4093 89.033 81.033L125.803 117.803ZM125.804 74.5856L119.305 68.0852L82.5322 104.852L89.0316 111.352L125.804 74.5856ZM119.303 68.0838C113.293 62.0741 105.39 59.1484 97.6682 59.1484V111.148C92.3834 111.148 86.8167 109.136 82.5336 104.853L119.303 68.0838ZM97.6682 59.1484C93.0978 59.1484 88.4345 60.1633 84.0599 62.3505L107.315 108.861C104.159 110.439 100.817 111.148 97.6682 111.148V59.1484ZM114.072 67.2209L112.803 65.9513L76.0332 102.721L77.3027 103.99L114.072 67.2209ZM112.803 65.9513C107.584 60.7321 100.561 57.8789 93.3329 57.8789V109.879C86.8793 109.879 80.6431 107.331 76.0332 102.721L112.803 65.9513ZM97.6682 114.145C92.1782 114.145 84.5041 112.139 78.7606 105.247L118.708 71.9571C112.457 64.4556 103.971 62.1447 97.6682 62.1447V114.145ZM80.3496 106.987L86.7984 113.436L123.568 76.666L117.119 70.2172L80.3496 106.987ZM86.7984 113.436C77.7188 104.356 76.5176 88.1892 87.6144 78.0172L122.752 116.349C135.068 105.06 133.866 86.9644 123.568 76.666L86.7984 113.436ZM86.7984 78.7984C95.8781 69.7188 112.045 68.5175 122.217 79.6143L83.8848 114.752C95.174 127.068 113.27 125.866 123.568 115.568L86.7984 78.7984ZM121.363 78.7262L114.914 72.3279L78.2897 109.242L84.7385 115.64L121.363 78.7262ZM114.987 72.4002C119.866 77.2797 122.145 83.6274 122.145 89.6682H70.1447C70.1447 96.5214 72.7282 103.681 78.2172 109.17L114.987 72.4002ZM122.145 89.6682C122.145 95.1581 120.139 102.832 113.247 108.576L79.9572 68.6282C72.4557 74.8794 70.1447 83.3657 70.1447 89.6682H122.145ZM114.987 106.987C113.071 108.902 110.537 110.785 107.347 112.153C104.126 113.535 100.81 114.145 97.6682 114.145V62.1447C89.9033 62.1447 83.0604 65.374 78.2172 70.2172L114.987 106.987Z" fill="#2E0081" mask="url(#path-4-inside-1_1828_5217)"/>
</g>
<defs>
<clipPath id="clip0_1828_5217">
<rect width="162" height="149" fill="white" transform="translate(0 9.5)"/>
</clipPath>
</defs>
</svg>
